<svg width="120" height="120" viewBox="0 0 120 120" xmlns="http://www.w3.org/2000/svg">
  <!-- Abstract geometric unity design -->
  <defs>
    <linearGradient id="gradient3" x1="0%" y1="0%" x2="100%" y2="100%">
      <stop offset="0%" style="stop-color:#0052CC;stop-opacity:1" />
      <stop offset="100%" style="stop-color:#4C9AFF;stop-opacity:0.7" />
    </linearGradient>
  </defs>
  
  <!-- Outer ring for containment -->
  <circle cx="60" cy="60" r="50" fill="none" stroke="#F4F5F7" stroke-width="1"/>
  
  <!-- Interlocking hexagons representing structured integration -->
  <polygon points="60,25 75,35 75,55 60,65 45,55 45,35" fill="url(#gradient3)" opacity="0.9"/>
  <polygon points="60,55 75,65 75,85 60,95 45,85 45,65" fill="none" stroke="#0052CC" stroke-width="3"/>
  
  <!-- Central connection point -->
  <circle cx="60" cy="60" r="5" fill="#0052CC"/>
  
  <!-- Corner accent elements -->
  <circle cx="30" cy="30" r="4" fill="#4C9AFF" opacity="0.6"/>
  <circle cx="90" cy="30" r="4" fill="#4C9AFF" opacity="0.6"/>
  <circle cx="30" cy="90" r="4" fill="#4C9AFF" opacity="0.6"/>
  <circle cx="90" cy="90" r="4" fill="#4C9AFF" opacity="0.6"/>
  
  <!-- Subtle connecting lines -->
  <line x1="30" y1="30" x2="45" y2="45" stroke="#4C9AFF" stroke-width="1" opacity="0.4"/>
  <line x1="90" y1="30" x2="75" y2="45" stroke="#4C9AFF" stroke-width="1" opacity="0.4"/>
  <line x1="30" y1="90" x2="45" y2="75" stroke="#4C9AFF" stroke-width="1" opacity="0.4"/>
  <line x1="90" y1="90" x2="75" y2="75" stroke="#4C9AFF" stroke-width="1" opacity="0.4"/>
</svg>