<svg width="120" height="120" viewBox="0 0 120 120" xmlns="http://www.w3.org/2000/svg">
  <!-- Background -->
  <circle cx="60" cy="60" r="55" fill="#f8f9fa" stroke="#e9ecef" stroke-width="2"/>
  
  <!-- Central hub -->
  <circle cx="60" cy="60" r="12" fill="#6B73FF"/>
  
  <!-- Atlassian nodes -->
  <circle cx="30" cy="35" r="8" fill="#0052CC"/>
  <circle cx="25" cy="60" r="8" fill="#0052CC"/>
  <circle cx="30" cy="85" r="8" fill="#0052CC"/>
  
  <!-- Slack nodes -->
  <circle cx="90" cy="35" r="8" fill="#2EB67D"/>
  <circle cx="95" cy="60" r="8" fill="#2EB67D"/>
  <circle cx="90" cy="85" r="8" fill="#2EB67D"/>
  
  <!-- Flow lines from Atlassian to center -->
  <path d="M38 35 Q49 47 52 55" stroke="#0052CC" stroke-width="2.5" fill="none" stroke-linecap="round" opacity="0.8"/>
  <path d="M33 60 L48 60" stroke="#0052CC" stroke-width="2.5" fill="none" stroke-linecap="round" opacity="0.8"/>
  <path d="M38 85 Q49 73 52 65" stroke="#0052CC" stroke-width="2.5" fill="none" stroke-linecap="round" opacity="0.8"/>
  
  <!-- Flow lines from center to Slack -->
  <path d="M68 55 Q79 47 82 35" stroke="#2EB67D" stroke-width="2.5" fill="none" stroke-linecap="round" opacity="0.8"/>
  <path d="M72 60 L87 60" stroke="#2EB67D" stroke-width="2.5" fill="none" stroke-linecap="round" opacity="0.8"/>
  <path d="M68 65 Q79 73 82 85" stroke="#2EB67D" stroke-width="2.5" fill="none" stroke-linecap="round" opacity="0.8"/>
  
  <!-- Data flow indicators -->
  <circle cx="45" cy="50" r="2" fill="#6B73FF" opacity="0.7"/>
  <circle cx="75" cy="50" r="2" fill="#6B73FF" opacity="0.7"/>
  <circle cx="45" cy="70" r="2" fill="#6B73FF" opacity="0.7"/>
  <circle cx="75" cy="70" r="2" fill="#6B73FF" opacity="0.7"/>
</svg>