<?xml version="1.0" encoding="UTF-8"?>
<svg width="200" height="100" viewBox="0 0 200 100" xmlns="http://www.w3.org/2000/svg">
    <!-- Atlassian Logo (left) -->
    <g transform="translate(20,25)">
        <path d="M31.32,0C30.89,0,30.48,0.24,30.24,0.63l-30,51.75c-0.24,0.39-0.24,0.87,0,1.26c0.24,0.39,0.63,0.63,1.08,0.63h19.74 c0.45,0,0.84-0.24,1.08-0.63l19.74-34.5c0.24-0.39,0.24-0.87,0-1.26L31.32,0z" fill="#0052CC"/>
        <path d="M59.04,17.25c-0.24-0.39-0.63-0.63-1.08-0.63H38.22c-0.45,0-0.84,0.24-1.08,0.63L18.12,51.75 c-0.24,0.39-0.24,0.87,0,1.26c0.24,0.39,0.63,0.63,1.08,0.63h19.74c0.45,0,0.84-0.24,1.08-0.63l19.02-33.24 C59.28,18.12,59.28,17.64,59.04,17.25z" fill="#2684FF"/>
    </g>
    
    <!-- Integration Arrow with Check -->
    <line x1="90" y1="50" x2="110" y2="50" stroke="#36B37E" stroke-width="2"/>
    <circle cx="100" cy="50" r="8" fill="#36B37E"/>
    <path d="M96 50 L99 53 L104 47" stroke="white" stroke-width="2" fill="none"/>
    
    <!-- Slack Logo (right) -->
    <g transform="translate(120,25)">
        <path d="M22.5,0c-2.2,0-4,1.8-4,4s1.8,4,4,4h4v-4C26.5,1.8,24.7,0,22.5,0z" fill="#E01E5A"/>
        <path d="M8.5,0c-2.2,0-4,1.8-4,4v12c0,2.2,1.8,4,4,4s4-1.8,4-4V4C12.5,1.8,10.7,0,8.5,0z" fill="#36C5F0"/>
        <path d="M26.5,14c0-2.2-1.8-4-4-4s-4,1.8-4,4v4h4C24.7,18,26.5,16.2,26.5,14z" fill="#2EB67D"/>
        <path d="M12.5,22.5c0,2.2,1.8,4,4,4s4-1.8,4-4v-12c0-2.2-1.8-4-4-4s-4,1.8-4,4V22.5z" fill="#ECB22E"/>
    </g>
    
    <!-- Text -->
    <text x="100" y="90" font-family="Arial" font-size="12" text-anchor="middle" fill="#36B37E">Connected</text>
</svg>