<svg xmlns="http://www.w3.org/2000/svg" xmlns:xlink="http://www.w3.org/1999/xlink" viewBox="0 0 521.32 430.2"><defs><style>.cls-1{fill:#344563;}.cls-2,.cls-26,.cls-30,.cls-58{fill:none;}.cls-3{fill:#a27f68;}.cls-4{fill:#172b4d;}.cls-5{isolation:isolate;}.cls-6{fill:#253858;}.cls-7{clip-path:url(#clip-path);}.cls-8{fill:#97a0af;}.cls-9{fill:url(#linear-gradient);}.cls-10{fill:#36b37e;}.cls-11,.cls-53{opacity:0.25;}.cls-11,.cls-17,.cls-22,.cls-53{mix-blend-mode:multiply;}.cls-11{fill:url(#linear-gradient-2);}.cls-12{fill:url(#linear-gradient-3);}.cls-13{fill:#a5adba;}.cls-14{fill:url(#linear-gradient-4);}.cls-15{fill:#ffab00;}.cls-16{fill:#0065ff;}.cls-17{fill:#dfe1e5;}.cls-18{fill:url(#linear-gradient-5);}.cls-19{fill:url(#linear-gradient-6);}.cls-20{fill:url(#New_Gradient_Swatch_14);}.cls-21{fill:url(#New_Gradient_Swatch_15);}.cls-22{opacity:0.42;fill:url(#linear-gradient-7);}.cls-23{clip-path:url(#clip-path-2);}.cls-24{fill:#0049b0;}.cls-25{fill:#0052cc;}.cls-26{stroke:#344563;stroke-linecap:round;stroke-width:3.04px;}.cls-26,.cls-30,.cls-58{stroke-miterlimit:10;}.cls-27{fill:#8c715d;}.cls-28{fill:url(#linear-gradient-8);}.cls-29{fill:url(#New_Gradient_Swatch_15-2);}.cls-30{stroke:#fff;stroke-width:3.11px;}.cls-31{fill:#72594b;}.cls-32{fill:url(#New_Gradient_Swatch_9);}.cls-33{fill:url(#New_Gradient_Swatch_8);}.cls-34{fill:#f1dad5;}.cls-35{fill:url(#linear-gradient-9);}.cls-36{fill:url(#linear-gradient-10);}.cls-37{fill:url(#linear-gradient-11);}.cls-38{fill:url(#linear-gradient-12);}.cls-39{fill:url(#linear-gradient-13);}.cls-40{fill:#5e6c84;}.cls-41{fill:#8993a4;}.cls-42{fill:url(#linear-gradient-14);}.cls-43{fill:url(#linear-gradient-15);}.cls-44{fill:#b19177;}.cls-45{clip-path:url(#clip-path-3);}.cls-46{fill:url(#linear-gradient-16);}.cls-47{clip-path:url(#clip-path-4);}.cls-48{fill:#7a869a;}.cls-49{fill:url(#linear-gradient-17);}.cls-50{fill:url(#linear-gradient-18);}.cls-51{fill:#1db9d4;}.cls-52{fill:#ffc400;}.cls-53{fill:url(#linear-gradient-19);}.cls-54{clip-path:url(#clip-path-5);}.cls-55{clip-path:url(#clip-path-6);}.cls-56{fill:#d4b696;}.cls-57{fill:url(#New_Gradient_Swatch_9-2);}.cls-58{stroke:#fafbfc;stroke-width:2.47px;}.cls-59{fill:url(#linear-gradient-20);}.cls-60{fill:url(#linear-gradient-21);}</style><clipPath id="clip-path"><path id="_Clipping_Path_" data-name="&lt;Clipping Path&gt;" class="cls-1" d="M222.83,128.42l.27-.46a5,5,0,0,1,3.28-2.38l2.16-.45a2.57,2.57,0,0,0,1.11-2.64l-.69-1.81,4-2,2.77,6-7.58,3.23Z"/></clipPath><linearGradient id="linear-gradient" x1="224.76" y1="120.71" x2="224.76" y2="71.38" gradientUnits="userSpaceOnUse"><stop offset="0" stop-color="#ffc400"/><stop offset="1" stop-color="#ff991f"/></linearGradient><linearGradient id="linear-gradient-2" x1="13243.28" y1="396.9" x2="13082.33" y2="396.9" gradientTransform="matrix(-1, 0, 0, 1, 13442.26, 0.82)" gradientUnits="userSpaceOnUse"><stop offset="0" stop-color="#091e42"/><stop offset="1" stop-color="#091e42" stop-opacity="0.2"/></linearGradient><linearGradient id="linear-gradient-3" x1="183.13" y1="402.23" x2="183.13" y2="222.39" gradientUnits="userSpaceOnUse"><stop offset="0.22" stop-color="#fff"/><stop offset="1" stop-color="#c1c7d0"/></linearGradient><linearGradient id="linear-gradient-4" x1="246.19" y1="294.03" x2="246.19" y2="198.5" xlink:href="#linear-gradient"/><linearGradient id="linear-gradient-5" x1="281.89" y1="314.72" x2="281.89" y2="40.45" gradientUnits="userSpaceOnUse"><stop offset="0" stop-color="#c1c7d0"/><stop offset="0.78" stop-color="#fff"/></linearGradient><linearGradient id="linear-gradient-6" x1="13351.47" y1="-682.76" x2="13027.9" y2="-949.04" gradientTransform="translate(13446.17 -616.01) rotate(180)" gradientUnits="userSpaceOnUse"><stop offset="0.22" stop-color="#c1c7d0" stop-opacity="0"/><stop offset="1" stop-color="#c1c7d0"/></linearGradient><linearGradient id="New_Gradient_Swatch_14" x1="332.92" y1="174.74" x2="521.32" y2="174.74" gradientUnits="userSpaceOnUse"><stop offset="0" stop-color="#0052cc"/><stop offset="1" stop-color="#2684ff"/></linearGradient><linearGradient id="New_Gradient_Swatch_15" x1="354.18" y1="174.63" x2="510.13" y2="174.63" gradientUnits="userSpaceOnUse"><stop offset="0" stop-color="#0065ff"/><stop offset="1" stop-color="#4c9aff"/></linearGradient><linearGradient id="linear-gradient-7" x1="13029.09" y1="174.63" x2="13107.06" y2="174.63" gradientTransform="matrix(-1, 0, 0, 1, 13446.17, 0)" gradientUnits="userSpaceOnUse"><stop offset="0" stop-color="#fff" stop-opacity="0"/><stop offset="0.01" stop-color="#fefefe" stop-opacity="0.02"/><stop offset="0.09" stop-color="#eceef1" stop-opacity="0.25"/><stop offset="0.19" stop-color="#dde0e5" stop-opacity="0.45"/><stop offset="0.29" stop-color="#d0d4db" stop-opacity="0.62"/><stop offset="0.39" stop-color="#c5cbd3" stop-opacity="0.76"/><stop offset="0.5" stop-color="#bdc3cd" stop-opacity="0.87"/><stop offset="0.63" stop-color="#b7bec8" stop-opacity="0.94"/><stop offset="0.78" stop-color="#b4bbc6" stop-opacity="0.99"/><stop offset="1" stop-color="#b3bac5"/></linearGradient><clipPath id="clip-path-2"><ellipse class="cls-2" cx="432.16" cy="174.63" rx="77.97" ry="160.79"/></clipPath><linearGradient id="linear-gradient-8" x1="206.04" y1="48.61" x2="219.16" y2="48.61" xlink:href="#linear-gradient"/><linearGradient id="New_Gradient_Swatch_15-2" x1="130.01" y1="108.25" x2="192.93" y2="45.34" xlink:href="#New_Gradient_Swatch_15"/><linearGradient id="New_Gradient_Swatch_9" x1="125.56" y1="172.49" x2="149.41" y2="172.49" gradientUnits="userSpaceOnUse"><stop offset="0" stop-color="#36b37e"/><stop offset="1" stop-color="#79f2c0"/></linearGradient><linearGradient id="New_Gradient_Swatch_8" x1="126.11" y1="133.25" x2="173.04" y2="133.25" gradientUnits="userSpaceOnUse"><stop offset="0" stop-color="#00875a"/><stop offset="1" stop-color="#57d9a3"/></linearGradient><linearGradient id="linear-gradient-9" x1="271.45" y1="314.05" x2="277.8" y2="314.05" gradientUnits="userSpaceOnUse"><stop offset="0.38" stop-color="#f1dbcb"/><stop offset="1" stop-color="#efc7b0"/></linearGradient><linearGradient id="linear-gradient-10" x1="274.76" y1="331.59" x2="290.21" y2="331.59" gradientUnits="userSpaceOnUse"><stop offset="0" stop-color="#253858"/><stop offset="1" stop-color="#344563"/></linearGradient><linearGradient id="linear-gradient-11" x1="252.51" y1="369.9" x2="280.7" y2="369.9" xlink:href="#linear-gradient-9"/><linearGradient id="linear-gradient-12" x1="252.51" y1="393.98" x2="260.63" y2="393.98" xlink:href="#linear-gradient-10"/><linearGradient id="linear-gradient-13" x1="271" y1="390.65" x2="276.88" y2="390.65" xlink:href="#linear-gradient-10"/><linearGradient id="linear-gradient-14" x1="268.32" y1="310.19" x2="275.86" y2="310.19" xlink:href="#linear-gradient-9"/><linearGradient id="linear-gradient-15" x1="244.43" y1="318.62" x2="284.26" y2="318.62" xlink:href="#linear-gradient-10"/><clipPath id="clip-path-3"><path id="_Clipping_Path_2" data-name="&lt;Clipping Path&gt;" class="cls-3" d="M219,40a9.1,9.1,0,0,0,6.56-1.29c0-.29.11-.73.22-1.26.6-2.86,1.5-3.74,1.76-5.09a6.17,6.17,0,0,0-3.23-6.3,6.47,6.47,0,0,0-6.89.74,5.8,5.8,0,0,0-1.9,3.14v2.64a6.13,6.13,0,0,1-.71,1.06c-.47.56-.79.76-.74,1s.34.36,1.63.39c.08.63.16,1.13.24,1.63.19,1.21.15,1.38.24,1.63C216.58,39.36,218.28,39.78,219,40Z"/></clipPath><linearGradient id="linear-gradient-16" x1="221.85" y1="37.67" x2="221.85" y2="24.28" gradientUnits="userSpaceOnUse"><stop offset="0" stop-color="#253858" stop-opacity="0.1"/><stop offset="0.72" stop-color="#253858"/></linearGradient><clipPath id="clip-path-4"><path id="_Clipping_Path_3" data-name="&lt;Clipping Path&gt;" class="cls-1" d="M205.46,128.59l.27-.47a5.08,5.08,0,0,1,3.34-2.43l2.3-.49a1.92,1.92,0,0,0,1.51-1.63l.34-2.59,4.52-.28.28,6.69Z"/></clipPath><linearGradient id="linear-gradient-17" x1="208.33" y1="96.96" x2="234.48" y2="96.96" gradientUnits="userSpaceOnUse"><stop offset="0" stop-color="#fff0b2"/><stop offset="0.57" stop-color="#ffc400"/></linearGradient><linearGradient id="linear-gradient-18" x1="212.02" y1="56.6" x2="236.3" y2="56.6" gradientUnits="userSpaceOnUse"><stop offset="0" stop-color="#ffc400"/><stop offset="0.08" stop-color="#ffb809"/><stop offset="0.25" stop-color="#ffa715"/><stop offset="0.42" stop-color="#ff9c1d"/><stop offset="0.64" stop-color="#ff991f"/></linearGradient><linearGradient id="linear-gradient-19" y1="419.44" x2="72.3" y2="419.44" gradientUnits="userSpaceOnUse"><stop offset="0" stop-color="#091e42" stop-opacity="0"/><stop offset="0.24" stop-color="#091e42" stop-opacity="0.16"/><stop offset="0.66" stop-color="#091e42" stop-opacity="0.58"/><stop offset="1" stop-color="#091e42"/></linearGradient><clipPath id="clip-path-5"><path id="_Clipping_Path_4" data-name="&lt;Clipping Path&gt;" class="cls-4" d="M22.67,419.64l-10-2.13,1.36-6.33,3.07,1.51a4.33,4.33,0,0,0,1.19,3c1.27,1.22,3,.86,3.91,2.22A2.94,2.94,0,0,1,22.67,419.64Z"/></clipPath><clipPath id="clip-path-6"><path id="_Clipping_Path_5" data-name="&lt;Clipping Path&gt;" class="cls-4" d="M65.68,418.82H54.36v-7.19l3.69.16c.38,2.37,1.28,3.34,2,3.78,1.59,1,3.45.19,4.77,1.5A3.26,3.26,0,0,1,65.68,418.82Z"/></clipPath><linearGradient id="New_Gradient_Swatch_9-2" x1="31.75" y1="287.83" x2="126.11" y2="287.83" xlink:href="#New_Gradient_Swatch_9"/><linearGradient id="linear-gradient-20" x1="13089.53" y1="412.93" x2="13089.53" y2="353.95" gradientTransform="matrix(-1, 0, 0, 1, 13133.62, 0)" xlink:href="#linear-gradient-18"/><linearGradient id="linear-gradient-21" x1="13083.73" y1="359.75" x2="13083.73" y2="290.86" gradientTransform="matrix(-1, 0, 0, 1, 13133.62, 0)" gradientUnits="userSpaceOnUse"><stop offset="0.43" stop-color="#ffc400"/><stop offset="1" stop-color="#fff0b2"/></linearGradient></defs><title>Big News</title><g class="cls-5"><g id="Layer_2" data-name="Layer 2"><g id="Layer_1-2" data-name="Layer 1"><path class="cls-6" d="M43.75,330.58a5.77,5.77,0,0,1-1.95-2.73,5.84,5.84,0,0,1,8.83-6.67,2,2,0,0,1,2.2,3.24q0,.28-.09.57a8.51,8.51,0,0,1-3.53,5Z"/><path id="_Clipping_Path_6" data-name="&lt;Clipping Path&gt;" class="cls-1" d="M222.83,128.42l.27-.46a5,5,0,0,1,3.28-2.38l2.16-.45a2.57,2.57,0,0,0,1.11-2.64l-.69-1.81,4-2,2.77,6-7.58,3.23Z"/><g class="cls-7"><rect class="cls-8" x="222.47" y="124.86" width="4.29" height="4.29"/><polygon class="cls-8" points="223.15 127.87 228.1 127.37 235.49 124.13 235.72 124.68 228.14 127.92 222.83 128.42 223.15 127.87"/><circle class="cls-8" cx="231.98" cy="121.85" r="0.76" transform="translate(-28.98 98.12) rotate(-22.52)"/></g><path class="cls-9" d="M213.43,71.71a85.5,85.5,0,0,0-.14,9.65c.09,2,.24,4,.44,5.8h0A50.79,50.79,0,0,0,219,105l10.12,15.72,7.21-1.36c-2-5.17-4.21-10.61-6.84-16.23q-2.46-5.27-5-10l2.07-21.68Z"/><path class="cls-3" d="M138.09,103.2s1.65-2.64,1.53-3.45-.53-1.24-.26-1.45.93.81,1.14.82.32-.25.58,0a3,3,0,0,1,.75,1,7.52,7.52,0,0,1,0,3.13c-.28.69-.79,2.14-1.46,2.54s-2.13-2-2.13-2Z"/><path class="cls-3" d="M140.69,105.2c-.31.41-1.19.18-1.67-.09a2.25,2.25,0,0,1-1.09-1.38c-.19-.77.25-1,.23-2.13s-.45-1.7-.26-1.84.64.23.94.63c.57.75.23,1.25.72,2.14.4.72.76.66,1.06,1.45C140.71,104.26,140.94,104.87,140.69,105.2Z"/><path class="cls-3" d="M172.6,120.31c-.54.16-1.15-.61-1.4-1.16a2.45,2.45,0,0,1-.07-1.91c.33-.8.87-.73,1.57-1.71s.7-1.78,1-1.78.41.61.41,1.16c0,1-.61,1.23-.75,2.34-.12.88.24,1.07,0,1.94C173.22,119.5,173,120.18,172.6,120.31Z"/><path class="cls-10" d="M143.84,105.58a2.21,2.21,0,0,0-1.52-1.78,2,2,0,0,0-1.3.11l-5.85,13.28a57.38,57.38,0,0,0-6.42,8.25c-.95,1.48-1.77,2.92-2.5,4.3.14.11,2.06,1.61,2.21,1.7a10.82,10.82,0,0,1,2.21,1.7,67.86,67.86,0,0,0,8.42-11.51q1.79-5.55,3.46-11.44Q143.23,107.87,143.84,105.58Z"/><ellipse class="cls-11" cx="311.94" cy="397.72" rx="161.77" ry="32.49"/><line class="cls-2" x1="209.84" y1="294.02" x2="231.34" y2="294.02"/><path class="cls-12" d="M217.16,402.23l-.41,0a42.73,42.73,0,0,1-38.59-42.11A356.78,356.78,0,0,0,168.3,280a355.55,355.55,0,0,0-19.21-57.57l57.1,2Z"/><path class="cls-13" d="M217.16,402.23a42.53,42.53,0,0,0,14.18-4V214.73l-26.86-6.36Z"/><path class="cls-14" d="M281.89,246.26A47.76,47.76,0,0,1,234.13,294c-1.28,0-2.53,0-3.78-.15V294H210.49a47.26,47.26,0,0,0,19.81-4.58,47.79,47.79,0,0,0-1-86.8c0-1.31,0-2.61,0-3.9a46.28,46.28,0,0,1,4.83-.24A47.76,47.76,0,0,1,281.89,246.26Z"/><path class="cls-15" d="M257.6,246.26a47.76,47.76,0,0,1-27.3,43.18A47.26,47.26,0,0,1,210.49,294h-.26c-.14-2.22-.29-4.45-.43-6.66-1.37-21.4-2.72-42.81-4-63-.35-5.36-.68-10.64-1-15.8q-.32-4.94-.62-9.74A48.08,48.08,0,0,1,222,200.06a45.31,45.31,0,0,1,7.35,2.58A47.76,47.76,0,0,1,257.6,246.26Z"/><path id="_Rectangle_" data-name="&lt;Rectangle&gt;" class="cls-16" d="M172.69,126.87h54.76a0,0,0,0,1,0,0V236.4a0,0,0,0,1,0,0H172.69a54.76,54.76,0,0,1-54.76-54.76v0A54.76,54.76,0,0,1,172.69,126.87Z"/><polygon class="cls-2" points="140.73 216.18 174.73 216.18 175.14 201.05 141.14 201.05 140.73 216.18"/><polygon class="cls-2" points="142.22 161.69 176.22 161.69 176.63 146.56 142.63 146.56 142.22 161.69"/><polygon class="cls-2" points="141.72 179.85 175.72 179.85 176.13 164.72 142.13 164.72 141.72 179.85"/><polygon class="cls-2" points="141.22 198.01 175.23 198.01 175.64 182.88 141.64 182.88 141.22 198.01"/><path class="cls-17" d="M172.69,126.87a54.87,54.87,0,0,0-12.79,1.52h17.22l-.41,15.13h-34l.21-7.84c-1.06.69-2.09,1.4-3.1,2.15l-2.34,85.75q1.44,1.21,3,2.33l.18-6.69h34l-.41,15.13h-16.4a54.77,54.77,0,0,0,14.86,2.06h4.52l3-109.53Zm2,89.31h-34l.41-15.13h34Zm.5-18.17h-34l.41-15.13h34Zm.5-18.17h-34l.41-15.13h34Zm.5-18.16h-34l.41-15.13h34Z"/><path id="_Path_" data-name="&lt;Path&gt;" class="cls-18" d="M379.19,40.45C317.6,84.2,269.93,107.22,235.46,120.39c-12.69,4.85-36.35,13.25-46.19,35-8.67,19.19-5,45.12,8.49,62.19,19.14,24.27,47.61,17.41,88.15,30.89,24.14,8,58.06,25.1,93.29,66.21Z"/><path class="cls-19" d="M269,195a134.91,134.91,0,0,0-19.72-21.27,139.36,139.36,0,0,0-53.64-28.65,48,48,0,0,0-6.36,10.31c-8.67,19.19-5,45.12,8.49,62.19,19.14,24.27,47.61,17.41,88.15,30.89,24.14,8,58.06,25.1,93.29,66.21V233.31C367.92,234.08,303.26,236.5,269,195Z"/><ellipse class="cls-20" cx="427.12" cy="174.74" rx="94.2" ry="174.74"/><ellipse class="cls-21" cx="432.16" cy="174.63" rx="77.97" ry="160.79"/><path class="cls-22" d="M354.18,174.63c0-88.8,34.91-160.79,78-160.79,0,0-82.08,196.4,0,321.57C389.09,335.41,354.18,263.43,354.18,174.63Z"/><g class="cls-23"><path class="cls-24" d="M348.89,171.7a260.27,260.27,0,0,1,2.68-37.46l57.06,1.47-3,84.13L353.6,221A256.39,256.39,0,0,1,348.89,171.7Z"/></g><path class="cls-25" d="M380.94,177.25c-.81,23.23,10.33,42.32,24.88,42.64s27-18.26,27.81-41.49-10.33-42.32-24.88-42.64S381.75,154,380.94,177.25Z"/><path class="cls-24" d="M393,177.44c-.59,16.88,6.21,30.73,15.17,30.92s16.71-13.33,17.29-30.22-6.21-30.73-15.17-30.92S393.55,160.56,393,177.44Z"/><line class="cls-26" x1="137.65" y1="126.87" x2="173.82" y2="126.87"/><line class="cls-26" x1="132.38" y1="154.12" x2="168.56" y2="154.12"/><line class="cls-26" x1="127.12" y1="181.37" x2="163.29" y2="181.37"/><line class="cls-26" x1="121.85" y1="208.62" x2="158.02" y2="208.62"/><line class="cls-26" x1="116.58" y1="235.86" x2="152.76" y2="235.86"/><line class="cls-26" x1="111.32" y1="263.11" x2="147.49" y2="263.11"/><line class="cls-26" x1="106.05" y1="290.36" x2="142.22" y2="290.36"/><line class="cls-26" x1="100.78" y1="317.6" x2="136.96" y2="317.6"/><line class="cls-26" x1="95.52" y1="344.85" x2="131.69" y2="344.85"/><line class="cls-26" x1="90.25" y1="372.1" x2="126.42" y2="372.1"/><line class="cls-26" x1="84.98" y1="399.34" x2="121.16" y2="399.34"/><line class="cls-26" x1="179.34" y1="102.85" x2="117.43" y2="419.95"/><line class="cls-26" x1="142.3" y1="102.85" x2="80.39" y2="419.95"/><path class="cls-27" d="M193.42,52.25c.82,1.83-2.64,4.43-3.14,4.8s-1.57,1.16-2.23.78c-.11-.06-.12-.11-.49-.62-.75-1-.82-1-.92-1.23-.2-.56.14-.69.07-1.63s-.32-.91-.26-1.35c.12-.91,1.38-1.45,1.71-1.59C189.92,50.66,192.78,50.84,193.42,52.25Z"/><path class="cls-27" d="M199.31,53.22h0l2.88-2.45,7.66-5.49c2.49-2.14,5.59-2.54,7.5-1.2A4.68,4.68,0,0,1,219,46.6h0a3.84,3.84,0,0,1-3.1,4.83l-13.12,4.93C201.33,56.52,199.68,54.8,199.31,53.22Z"/><path class="cls-27" d="M190.33,51.33l12.45-.91c1.73-.56,2.35-.12,2.54,0,1.14,1,.24,4.66-1.88,5.65a3.08,3.08,0,0,1-1.15.28l-12.16-2Z"/><path class="cls-28" d="M217.34,44.08c-1.9-1.34-5-.94-7.5,1.2L206,48a15.71,15.71,0,0,1,3.28,5.9l6.62-2.48A3.84,3.84,0,0,0,219,46.6,4.68,4.68,0,0,0,217.34,44.08Z"/><path class="cls-27" d="M191.18,54.53c.62,0,1-.37,1.07-.72a.64.64,0,0,0-.21-.47,1.2,1.2,0,0,0,.46-.88,1.17,1.17,0,0,0-.62-1c.13-.12.65-.62.52-1s-1.34-.64-1.84-.24C189.55,51,191,54.18,191.18,54.53Z"/><path class="cls-29" d="M181.17,44.5h-39.4a26.34,26.34,0,0,0-26.34,26.34V82.75a26.34,26.34,0,0,0,26.34,26.34h21.54a10.41,10.41,0,0,1,9.14,5.44l3.3,6.08,3.72-6.85a10.38,10.38,0,0,1,7-5.21,26.35,26.35,0,0,0,21-25.8V70.84A26.34,26.34,0,0,0,181.17,44.5Z"/><line class="cls-30" x1="139.01" y1="65.73" x2="185.09" y2="65.73"/><line class="cls-30" x1="139.01" y1="73.35" x2="185.09" y2="73.35"/><line class="cls-30" x1="139.01" y1="80.97" x2="185.09" y2="80.97"/><line class="cls-30" x1="139.01" y1="88.59" x2="172.01" y2="88.59"/><path class="cls-3" d="M171.62,116.88s3.14-1.24,3.56-2,.34-1.42.71-1.44.28,1.31.47,1.45.44,0,.49.39a3.26,3.26,0,0,1,0,1.33,8.16,8.16,0,0,1-2,2.75c-.69.42-2.07,1.36-2.91,1.27s-.6-3.08-.6-3.08Z"/><path class="cls-1" d="M142.08,228.88"/><path class="cls-31" d="M138.5,123.92c.17.61-.42,1-.46,2.42a5.33,5.33,0,0,0,.46,2.26c-3.65,1.4-6.74,1.52-7.54.26a4.61,4.61,0,0,1-.26-2.43,5.27,5.27,0,0,1,.57-2.84C132.75,121.51,138,122.31,138.5,123.92Z"/><path class="cls-32" d="M127.79,148.73a10.17,10.17,0,0,1,.56-1.26,11.55,11.55,0,0,1,.89-1.42c.31.06.81.15,1.44.22s1,.07,1.2.08c1.3.08,3.82.18,10.79.23a13,13,0,0,1,1.16,1.42,12.76,12.76,0,0,1,2.15,5.22c2.75,15,2.88,20.68,2.88,20.68q.1,3.32.18,6.65.2,7.94.35,15.8a1.91,1.91,0,0,1-.51.85,3.16,3.16,0,0,1-2.67.39,6.57,6.57,0,0,1-2.26-.77,27.82,27.82,0,0,1-2.54-6.22,25.57,25.57,0,0,1-.9-6.48,25.25,25.25,0,0,1,.71-6.18,53.38,53.38,0,0,0-7.07-14.34q-.6,8.53-1,17.47-.35,8.17-.49,16L128,198.93a48.51,48.51,0,0,1-1.7-16.09,47.31,47.31,0,0,1,.57-4.88q-.2-3.08-.54-6.37-.28-2.65-.63-5.15s-.74-8.6.65-13.7C126.7,151.65,127.48,149.58,127.79,148.73Z"/><path class="cls-4" d="M129.34,196.55a22.8,22.8,0,0,1-2.72-.15c.26,2.17.57,3.92.81,5.11a42.21,42.21,0,0,1,.83,7c0,.75.08,1.36.09,1.78l2.67,0,.55-.89.71,1q2,0,4.11,0t4.09-.16l.2-1.11-3.72-1A10.56,10.56,0,0,1,135,206a13.19,13.19,0,0,1-2.06-5.84,18.1,18.1,0,0,1-.23-3.87A22.8,22.8,0,0,1,129.34,196.55Z"/><path class="cls-33" d="M126.22,131.63a3.46,3.46,0,0,1,1.92-4l1-.43c3.28-1.3,7.21-2.18,20.1-1l7.89.77c2.83-1.67,5.79-3.55,8.82-5.69q2.59-1.83,4.92-3.66l2.16,2.82a57.84,57.84,0,0,1-14.69,11.92c-2,.53-4.22,1-6.52,1.47-2.53.49-4.94.86-7.22,1.14a5.14,5.14,0,0,1,.55,2.39,5.9,5.9,0,0,1-1.11,3.05c-.76,1.27-1.25,3.51.14,7.75a31.8,31.8,0,0,1-8.68.61,51.52,51.52,0,0,1-7.91-1.29,35.93,35.93,0,0,0,.27-5.15,38.23,38.23,0,0,0-.71-6.37C127,134.74,126.65,133.28,126.22,131.63Z"/><path class="cls-31" d="M137.28,113.24a15.47,15.47,0,0,1,2.54,4c.07.18.08.27.45.47s.86.28.77.55-.64.64-.7.87l.53,3.81-1.53.6-5.18,2c.06-.21,2-5.37,1.94-5.67s-.08-.91.27-1.07.89-3.17,1-3.58a1.52,1.52,0,0,0,0-1.07C137.35,113.58,137.28,113.24,137.28,113.24Z"/><path class="cls-6" d="M128.64,123a5.19,5.19,0,0,0,3.83,1.89c2.13-.07,4.14-1.84,4.22-3.38a11.1,11.1,0,0,1-.17-2.39c.08-.59.29-1.42.61-1.44s.56.82.78.78.2-1,.21-1.5c0-2.33.49-2.46.29-3.38a4.69,4.69,0,0,0-2.55-2.83,6.1,6.1,0,0,0-5.27.39,8,8,0,0,0-3.77,8.21A7,7,0,0,0,128.64,123Z"/><path class="cls-6" d="M124,117.84a3.9,3.9,0,0,0,2.88,1.42c1.6-.05,3.11-1.38,3.17-2.54a8.34,8.34,0,0,1-.13-1.79c.06-.44.22-1.06.46-1.08s.42.62.58.58.15-.73.15-1.13c0-1.75.37-1.85.22-2.54a3.52,3.52,0,0,0-1.92-2.13,4.59,4.59,0,0,0-4,.29,6,6,0,0,0-2.83,6.17A5.24,5.24,0,0,0,124,117.84Z"/><path class="cls-4" d="M146.56,196.55a22.8,22.8,0,0,1-2.72-.15c.26,2.17.57,3.92.81,5.11a42.21,42.21,0,0,1,.83,7c0,.75.08,1.36.09,1.78l2.67,0,.55-.89.71,1q2,0,4.11,0t4.09-.16l.2-1.11-3.72-1a10.56,10.56,0,0,1-1.95-2.09,13.19,13.19,0,0,1-2.06-5.84,18.1,18.1,0,0,1-.23-3.87A22.8,22.8,0,0,1,146.56,196.55Z"/><path class="cls-34" d="M245.17,298.33l-.39-1.57-1-1.8-.86-4,.56-.27.83,2-.77-4.3.69-.25,1,4-.3-4.26.69-.08.57,4.2.44-4.2.71.07a13.58,13.58,0,0,1,0,2.45,3,3,0,0,0,.25,2,1.93,1.93,0,0,0,.38.43l.37-1,1-1.1.39.45-.91,2.42-.33,2.11.3,1.61Z"/><path class="cls-35" d="M277.43,317.51h-6a11.11,11.11,0,0,0,.64-6.74l3.65-.18c0,.21.11.53.22.9a2.37,2.37,0,0,0,.4,1c.42.39,1.21.16,1.44.08Z"/><path id="_Path_2" data-name="&lt;Path&gt;" class="cls-36" d="M280.41,346.27a31.73,31.73,0,0,0,9.8-13.24,24,24,0,0,0-4.14-10,15,15,0,0,0-3.91-3.9c-2.42-1.59-6.22-2.93-7.15-1.78s1.11,4.67,2.88,6.67a18,18,0,0,0,1.84,1.73,21.42,21.42,0,0,1,5.13,7.23L280,341.65Z"/><path class="cls-37" d="M279.4,339.15a11.68,11.68,0,0,0-1.15-3,13,13,0,0,1-1.38.35c-.52.1-.92.14-1.13.17-1.22.18-3.54.45-9.8.93a18.19,18.19,0,0,0-1.18,1.65,19.57,19.57,0,0,0-2.48,6c-4.25,17.47-5.1,24.3-5.1,24.3s-3,16.75-4.67,31.46a6.51,6.51,0,0,0,2.39,2c.49.19.46.55,1.37.64a93.42,93.42,0,0,0,4.33-18.58c.31-2.46.51-4.81.62-7.06a78.48,78.48,0,0,0,5.5-10.49c2.69-6.25,3.39-10.09,4.07-10,1.05.16.29,8.89.18,21.66-.06,7.49.37,13.68.41,17.77a2.85,2.85,0,0,0,2.71.4,4,4,0,0,0,1.9-1.15,81.49,81.49,0,0,0,.29-21.74,94.15,94.15,0,0,0,3.22-12.75s1.93-10.79.87-17.89C280.21,342.67,279.6,340,279.4,339.15Z"/><path class="cls-38" d="M258.47,385.18a8.24,8.24,0,0,1-3.7-.87c-.78,5.16-1.62,11.06-2.25,16.67a6.51,6.51,0,0,0,2.39,2c.49.19.46.55,1.37.64a93.42,93.42,0,0,0,4.33-18.58l0-.21A8,8,0,0,1,258.47,385.18Z"/><path class="cls-39" d="M273.47,384.51a8.35,8.35,0,0,1-2.46-.37c0,2.21,0,4.62.21,7.2.16,2,.4,4,.69,5.75a2,2,0,0,0,.78.41,2.35,2.35,0,0,0,1.41-.15,4,4,0,0,0,1.9-1.15,81.56,81.56,0,0,0,.88-11.91c0-.19,0-.37,0-.55A8.28,8.28,0,0,1,273.47,384.51Z"/><path class="cls-40" d="M270.8,357.52c.68.1.6,3.81.43,9.87l2.08-.35c1.42-.24,1.9-.34,2.79-.48.58-.09,1.43-.21,2.47-.32.39-1.67.69-3.2.93-4.53,0,0,1.93-10.79.87-17.89-.17-1.16-.78-3.79-1-4.67a11.68,11.68,0,0,0-1.15-3,13,13,0,0,1-1.38.35c-.52.1-.92.14-1.13.17-1.22.18-3.54.45-9.8.93a18.19,18.19,0,0,0-1.18,1.65,19.57,19.57,0,0,0-2.48,6c-2.35,9.68-3.66,16.08-4.36,19.88a23.49,23.49,0,0,0,2.42,1.22,23.77,23.77,0,0,0,6.15,1.74l.24-.55C269.42,361.27,270.12,357.42,270.8,357.52Z"/><path class="cls-41" d="M242.56,407.42l3.38-1.07a9.5,9.5,0,0,0,6.55-7.81c.09-.65.58-3.41.79-4.57a7.47,7.47,0,0,1,2.7-.06,7.55,7.55,0,0,1,3.41,1.49,32.37,32.37,0,0,0-1.86,5.37,33.6,33.6,0,0,0-.92,5.89c-.05.78-.06,1.42-.06,1.84l-3.33,0-.56-.62-.88.59H243.3Z"/><path class="cls-41" d="M276.5,393a5.1,5.1,0,0,0-5.57,0,18.42,18.42,0,0,1,.39,2.44c.17,1.82.25,2.86-.39,3.43a2.12,2.12,0,0,1-1.9.33l-.39.16c1.61,2,2.82,3.45,3.55,4.45a2.55,2.55,0,0,0,1.14.93,1.8,1.8,0,0,0,1.66-.08,1.63,1.63,0,0,0,.63-1.06Z"/><path class="cls-42" d="M270.62,305.66a6.42,6.42,0,0,1-2.29,3.9l.79.85.64,3.56a9,9,0,0,0,2.52.65c1.14.12,2.62.28,3.25-.56a2.49,2.49,0,0,0,.31-1.79,8.53,8.53,0,0,0-.25-1.48,6.63,6.63,0,0,0-1.31-2.11,9.23,9.23,0,0,0-2.15-2.24A7,7,0,0,0,270.62,305.66Z"/><path class="cls-43" d="M250,317.5a49.32,49.32,0,0,0,16.3,6.74,51.8,51.8,0,0,1-3,14.45,22.42,22.42,0,0,0,16.34,1.24,37,37,0,0,1,2-13,36.45,36.45,0,0,1,2.7-6,18.63,18.63,0,0,0-2.52-2l-.64-.4s-.7-.42-1.44-.79c-3.07-1.53-8.68-2.05-8.68-2.05-7.66-.71-7.4-.58-8.88-.82a37.22,37.22,0,0,1-8.08-2.26l-5.35-16.29-4.24,1.11c.68,3.49,1.55,7.21,2.67,11.14C248,311.75,249,314.73,250,317.5Z"/><path class="cls-34" d="M277.13,311.44"/><path class="cls-4" d="M282.3,308.79c2.29,4.15,3.88,3.93,4.29,6.43.37,2.23-.4,5.38-2.88,6.71-2.79,1.5-5.86-.35-6-.45A7,7,0,0,1,275,318.2c-1.4-3.3.65-4.8-.81-7.25-.58-1-1.17-1.18-3.33-4a3.43,3.43,0,0,1-.83-1.9,3.37,3.37,0,0,1,.77-2.24c1.26-1.56,3.49-1.47,4.16-1.45a7,7,0,0,1,3.85,1.4C280.76,304.23,280.58,305.67,282.3,308.79Z"/><path class="cls-44" d="M189.45,54.14a2.71,2.71,0,0,1-1.63-.6c-.22-.16-.69-.51-.63-.85,0-.19.21-.28.44-.45a7.87,7.87,0,0,0,1.08-1.05c.25-.21,1-.59,2.91.08C191.51,52.9,190.48,54.07,189.45,54.14Z"/><path class="cls-3" d="M219.43,37.31l6.4.09a6.27,6.27,0,0,0,0,2.8.37.37,0,0,0,.3.28l1.81.31a5.55,5.55,0,0,1-1.21,2,6,6,0,0,1-2.21,1.41,7.35,7.35,0,0,1-4,.75,6.68,6.68,0,0,1-4.33-2.82,6.37,6.37,0,0,0,1.15-.47c.79-.42,1.84-1,2.1-2a6.52,6.52,0,0,0,0-1.77C219.47,37.65,219.45,37.45,219.43,37.31Z"/><path id="_Clipping_Path_7" data-name="&lt;Clipping Path&gt;" class="cls-3" d="M219,40a9.1,9.1,0,0,0,6.56-1.29c0-.29.11-.73.22-1.26.6-2.86,1.5-3.74,1.76-5.09a6.17,6.17,0,0,0-3.23-6.3,6.47,6.47,0,0,0-6.89.74,5.8,5.8,0,0,0-1.9,3.14v2.64a6.13,6.13,0,0,1-.71,1.06c-.47.56-.79.76-.74,1s.34.36,1.63.39c.08.63.16,1.13.24,1.63.19,1.21.15,1.38.24,1.63C216.58,39.36,218.28,39.78,219,40Z"/><g class="cls-45"><path class="cls-46" d="M215.95,28.91c.46.64,1.86.61,2.85.36,1.55-.4,1.93-1.31,2.89-1.1a1.67,1.67,0,0,1,1.07.75,3.71,3.71,0,0,1,.18,1.85,1.5,1.5,0,0,0,.11.84c.19.35.42.3.59.6.3.53-.2,1.06.1,1.43a.81.81,0,0,0,.65.24L225,32c.53.05.73.22.81.36.23.4-.27.89-.81,2.42a3,3,0,0,0-.21.73c-.06,1,.8,2.16,1.46,2.15,1.1,0,2.35-3.25,2.24-6.17,0-1.14-.17-4.33-2.76-6.11A7.4,7.4,0,0,0,221,24.3a6.89,6.89,0,0,0-3.63,1.16,4.85,4.85,0,0,0-2.13,2.88,3.73,3.73,0,0,0-.06,1c.11-.52.26-1.13.42-1.12S215.74,28.62,215.95,28.91Z"/></g><path id="_Clipping_Path_8" data-name="&lt;Clipping Path&gt;" class="cls-1" d="M205.46,128.59l.27-.47a5.08,5.08,0,0,1,3.34-2.43l2.3-.49a1.92,1.92,0,0,0,1.51-1.63l.34-2.59,4.52-.28.28,6.69Z"/><g class="cls-47"><rect class="cls-48" x="205.09" y="124.97" width="4.37" height="4.37"/><polygon class="cls-48" points="205.78 128.03 218.01 126.79 218.01 127.4 205.46 128.59 205.78 128.03"/></g><circle class="cls-48" cx="215.6" cy="124.4" r="0.78"/><path id="_Clipping_Path_9" data-name="&lt;Clipping Path&gt;" class="cls-49" d="M230.74,81.48c-2.52,2.49-6.3,7-12.25,15l.93,25.85-8.18.27q-.57-6.52-1.2-13.13-.8-8.42-1.68-16.68a3.9,3.9,0,0,1,.39-2.18,89.22,89.22,0,0,1,13.16-19.21l12.47,0a11.46,11.46,0,0,1-3.64,10.13Z"/><path class="cls-50" d="M234.78,72.8l-22.54-.25c0-4.14,0-7.54-.07-9.89,0-4.34-.06-6.27-.09-9.94s0-6.88-.05-8.9c1.21-.49,2.47-1,3.77-1.66q1.35-.64,2.59-1.3a4,4,0,0,0,2.13,2.3c1.79.68,4.26-.36,5.56-2.76a14.69,14.69,0,0,1,6.11,1.44,8.9,8.9,0,0,1,2,1.19c2.75,2.35,2.27,7.25,1.63,13a67.41,67.41,0,0,1-1.6,8.92Z"/><path class="cls-44" d="M194.28,58.38l-.63-4,17.72-3a4.08,4.08,0,0,1,4.83,3h0a3.75,3.75,0,0,1-1,2.95,3.71,3.71,0,0,1-2.62,1.11Z"/><path class="cls-44" d="M209,57a3,3,0,0,1,.51-2.6c1.63-2.91,3.82-3.45,9.16-6.79,0,0,5.81-3.64,9.3-4.81a6.71,6.71,0,0,1,1.61-.33,6.06,6.06,0,0,1,2.57.34,4.47,4.47,0,0,1,2.39,1.69c1.09,1.85-.34,4.69-1.87,6.23-.76.77-1.39,1.07-3.55,2.08-7.81,3.62-9,4-10.14,4.38a45.52,45.52,0,0,1-4.76,1.15C211.63,58.75,209.58,58.23,209,57Z"/><path class="cls-44" d="M195.45,54.54c.64,1.7.29,3.24-.54,3.68s-1.74-.14-2.07-.32A4,4,0,0,1,191,55.73c-.58-.38-2.08-1.44-1.88-2.17a5.44,5.44,0,0,0,.32-.67c.2-.5.23-.7.46-.84s.47-.06.79-.28.24-.33.39-.44c.5-.38,1.87.51,2.73,1.26A8.54,8.54,0,0,1,195.45,54.54Z"/><path class="cls-51" d="M229.75,72.8"/><path class="cls-52" d="M234.59,44.52a4.47,4.47,0,0,0-2.39-1.69,6.06,6.06,0,0,0-2.57-.34,6.71,6.71,0,0,0-1.61.33A46,46,0,0,0,221,46.3a14.05,14.05,0,0,1,4.11,8.42l4.09-1.88c2.16-1,2.79-1.31,3.55-2.08C234.24,49.21,235.67,46.37,234.59,44.52Z"/><ellipse class="cls-53" cx="36.15" cy="419.44" rx="36.15" ry="7.9"/><path id="_Clipping_Path_10" data-name="&lt;Clipping Path&gt;" class="cls-4" d="M22.67,419.64l-10-2.13,1.36-6.33,3.07,1.51a4.33,4.33,0,0,0,1.19,3c1.27,1.22,3,.86,3.91,2.22A2.94,2.94,0,0,1,22.67,419.64Z"/><g class="cls-54"><rect class="cls-41" x="12.27" y="417.85" width="10.58" height="0.7" transform="translate(87.99 5.6) rotate(12.09)"/></g><circle class="cls-41" cx="15.24" cy="414.74" r="0.77" transform="translate(-393.5 342.77) rotate(-77.91)"/><path id="_Clipping_Path_11" data-name="&lt;Clipping Path&gt;" class="cls-4" d="M65.68,418.82H54.36v-7.19l3.69.16c.38,2.37,1.28,3.34,2,3.78,1.59,1,3.45.19,4.77,1.5A3.26,3.26,0,0,1,65.68,418.82Z"/><g class="cls-55"><rect class="cls-41" x="54.14" y="418.05" width="11.76" height="0.77"/></g><circle class="cls-41" cx="56.71" cy="415.41" r="0.85"/><path class="cls-56" d="M47.81,336.77a6.67,6.67,0,0,1-6.38-1.12,10.88,10.88,0,0,0,2.43-6.13l5.36.91Z"/><path class="cls-56" d="M52.83,324.42a13.94,13.94,0,0,0,.09,2.1c.06.47.12.81.14.9a11.66,11.66,0,0,0,.72,2.37l-1.17.18-1.1,3.66a12.22,12.22,0,0,1-4.78.06c-1.34-.26-2.7-.52-3.29-1.56a5.11,5.11,0,0,1-.37-1.15,6.9,6.9,0,0,0-.23-.71c-.1-.29-.25-.7-.46-1.2a3.34,3.34,0,0,0,1.49.46,1.92,1.92,0,0,0,1.46-.29c.59-.55.17-1.53.7-1.79a.73.73,0,0,1,.72.09c.58.44.31,1.89.31,1.89h1.05a4.05,4.05,0,0,1,.66-1.83c.57-.84,1.08-.83,1.5-1.66s.14-1.29.54-1.63S51.62,323.95,52.83,324.42Z"/><path class="cls-56" d="M68.91,314.08a3,3,0,0,0,.33,1.59c.42.81,1.71,3.35,2.56,3.1.4-.12.53-.84.54-1.2,0-.71-.88-1.06-1-1.85,0-.17-.05-.26-.09-.44-.11-.45-.16-.67-.26-.69s-.36.48-.66.49c-.53,0-.9-1.63-1.2-1.57C69,313.53,68.92,313.94,68.91,314.08Z"/><path class="cls-15" d="M31.23,353.77c-1,1.82-1.89,3.75-2.78,5.79a87.93,87.93,0,0,0-6.54,23.73c-1.18,2.72-2.33,5.63-3.42,8.71a130.07,130.07,0,0,0-5.39,20.67l5.37,1.23L28.75,386c.54-1.14,1.33-2.84,2.28-4.9,6.93-15,7.6-17.67,6.8-20.38C37.35,359.14,36,356.34,31.23,353.77Z"/><path class="cls-57" d="M58.74,248.84H99.12a27,27,0,0,1,27,27V288a27,27,0,0,1-27,27H77a10.66,10.66,0,0,0-9.37,5.57l-3.38,6.23-3.81-7a10.64,10.64,0,0,0-7.2-5.34A27,27,0,0,1,31.75,288v-12.2A27,27,0,0,1,58.74,248.84Z"/><circle class="cls-58" cx="101.99" cy="282.63" r="5.2"/><circle class="cls-58" cx="78.93" cy="282.63" r="5.2"/><circle class="cls-58" cx="55.87" cy="282.63" r="5.2"/><path class="cls-56" d="M74.71,319c-.69.75-2.58.51-3.57-.52a3.26,3.26,0,0,1-.77-2.42c.06-.92.44-1,.68-2,.5-2-.58-3.67-.12-3.93.11-.06.33,0,.78.33a.46.46,0,0,1,.32-.19c.3,0,.52.52.62.76a36.56,36.56,0,0,1,1.71,4.5C74.83,317.59,75.06,318.63,74.71,319Z"/><path class="cls-56" d="M74.12,312.66a5.41,5.41,0,0,1,.27,2c.13,2.44.6,3.94.42,4s-.32-.46-.43-.72c-.91-2.14-2.4-6.68-1.74-7C73,310.81,73.75,311.76,74.12,312.66Z"/><path class="cls-59" d="M44.83,356.87a224.18,224.18,0,0,1,9.25,27,224.09,224.09,0,0,1,5.9,29l-6.19,0q-1.34-5.9-3.07-12.2c-1.59-5.74-3.3-11.15-5.06-16.23-8.69-8.37-14.5-15.47-16.19-19-.65-1.35-1.8-3.72-1-6,.12-.37.45-1,1.09-2.38s1.22-2.49,1.6-3.23a45.76,45.76,0,0,0,13.7,2.92Z"/><path class="cls-56" d="M35.59,287.31a3.24,3.24,0,0,1-.23,1.72c-.38.9-1.57,3.7-2.49,3.5-.44-.1-.63-.86-.67-1.24-.07-.75.86-1.2.95-2,0-.19,0-.28.07-.48.08-.48.12-.73.23-.76s.42.48.75.47c.57,0,.84-1.8,1.16-1.77C35.5,286.72,35.57,287.16,35.59,287.31Z"/><path class="cls-56" d="M30.26,292.9c.74.7,2.61.33,3.52-.78a3.26,3.26,0,0,0,.6-2.46c-.12-.91-.51-1-.82-1.94-.64-2,.32-3.7-.16-3.93-.12-.05-.33,0-.76.38a.46.46,0,0,0-.34-.17c-.3,0-.48.55-.56.8a36.56,36.56,0,0,0-1.39,4.61C30,291.51,29.89,292.56,30.26,292.9Z"/><path class="cls-56" d="M30.41,286.54a5.41,5.41,0,0,0-.13,2c0,2.44-.32,4-.13,4s.28-.48.38-.75c.75-2.2,1.92-6.84,1.24-7.06C31.42,284.61,30.71,285.61,30.41,286.54Z"/><path class="cls-60" d="M52.42,337.08a23,23,0,0,1-12.39-5,23.54,23.54,0,0,1-6.44-8.62,27,27,0,0,1-2.48-9.92c.82-4.3,1.54-8.81,2.14-13.55q.43-3.38.73-6.62l-4.61-2.5c-1,3.56-1.87,7.33-2.69,11.32-.92,4.46-1.64,8.73-2.2,12.77a44.63,44.63,0,0,0,4.88,16.29A44,44,0,0,0,35,339.47c-.62,2.14-1.37,4.41-2.28,6.78A87,87,0,0,1,29,354.63a18.68,18.68,0,0,0,16.88,4.7c.77-1.89,1.51-3.93,2.22-6.12,1-3,1.69-5.81,2.25-8.43a26.52,26.52,0,0,0,7.28-.2c2.57-.43,6.87-1.15,10.47-4.36,3-2.63,4-5.67,5.27-9.31a36.47,36.47,0,0,0,2-12.87,4.14,4.14,0,0,0-1.82-.37,4.2,4.2,0,0,0-2.34.81,45.47,45.47,0,0,1-6.56,16.65,19,19,0,0,1-12.17,2Z"/></g></g></g></svg>