<?xml version="1.0" encoding="UTF-8"?>
<svg width="144" height="144" viewBox="0 0 144 144" xmlns="http://www.w3.org/2000/svg">
    <!-- Base logo for normal state -->
    <rect x="16" y="16" width="112" height="112" rx="12" fill="#FFFFFF" stroke="#253858" stroke-width="2"/>
    <g transform="translate(32, 32)">
        <!-- Atlassian symbol -->
        <path d="M39.5,56.5c-0.9,1.5-2.1,3.3-3.4,5c-0.3,0.4-0.6,0.8-0.9,1.1c-7.9,9.4-15.6,12-20.8,12c-2.7,0-4.9-0.6-6.2-1.5 c-0.2-0.1-0.3-0.2-0.5-0.4c-1.7-1.5-2.2-3.8-2.2-5.7c0-2.3,0.9-4.9,2.7-7.4c1.8-2.5,4.3-4.9,7.4-6.9c6.3-4.1,14.1-6.5,22.7-6.5h1.2 V56.5z" fill="#253858"/>
        <path d="M78.9,46.3c0.1,0.2,0.3,0.4,0.4,0.6c1.7,2.7,2.2,6.1,1.4,9.7c-0.8,3.6-2.8,7.4-5.8,11.1c-6.1,7.3-15.1,12-24.9,12h-1.2 V69.3c0.9-1.5,2.1-3.3,3.4-5c0.3-0.4,0.6-0.8,0.9-1.1c7.9-9.4,15.6-12,20.8-12c2.7,0,4.9,0.6,6.2,1.5 C78.7,46.1,78.8,46.2,78.9,46.3z" fill="#253858"/>
        <!-- Slack hash symbol -->
        <path d="M60,20 L64,20 L64,44 L60,44 L60,20 M52,28 L76,28 L76,32 L52,32 L52,28 M52,36 L76,36 L76,40 L52,40 L52,36" stroke="#2684FF" stroke-width="2" fill="none"/>
    </g>
</svg>