<?xml version="1.0" encoding="UTF-8" standalone="no"?>
<svg width="185px" height="58px" viewBox="0 0 185 58" version="1.1" xmlns="http://www.w3.org/2000/svg" xmlns:xlink="http://www.w3.org/1999/xlink">
<g id="Page-1" stroke="none" stroke-width="1" fill="none" fill-rule="evenodd">
    <g transform="translate(-581.000000, -563.000000)">
        <g transform="translate(581.000000, 563.000000)">
            <path d="M29,0 C45.0104167,0 58,12.75375 58,28.5 C58,44.24625 45.0104167,57 29,57 C12.9775,57 0,44.24625 0,28.5 C0,12.75375 12.9775,0 29,0 Z M29,2.375 C43.6800581,2.375 55.5833333,14.06968 55.5833333,28.5 C55.5833333,42.93032 43.6800581,54.625 29,54.625 C14.3121881,54.625 2.41666667,42.9345737 2.41666667,28.5 C2.41666667,14.0654263 14.3121881,2.375 29,2.375 Z M44.7083333,25.53125 L44.7083333,49.5781739 C45.5532265,48.9690576 46.3601644,48.3120559 47.125,47.6112292 L47.125,25.53125 C47.125,24.225 46.36375,22.408125 45.42125,21.481875 L36.14125,12.361875 C35.19875,11.435625 33.35,10.6875 32.0208333,10.6875 L9.5494448,10.6875 C8.83649278,11.4391151 8.16814216,12.2321353 7.54852468,13.0625 L32.0208333,13.0625 C32.1941212,13.0625 32.4024876,13.0944844 32.625,13.1499355 L32.625,21.375 C32.625,23.34625 34.2441667,24.9375 36.25,24.9375 L44.6193639,24.9375 C44.6757878,25.156176 44.7083333,25.3609498 44.7083333,25.53125 Z M35.0416667,14.6395 L35.0416667,20.78125 C35.0416667,22.0875 35.525,22.5625 36.8541667,22.5625 L43.1036667,22.5625 L35.0416667,14.6395 Z M19.9375,24.9375 C20.1107879,24.9375 20.3191543,24.9694844 20.5416667,25.0249355 L20.5416667,33.25 C20.5416667,35.22125 22.1608333,36.8125 24.1666667,36.8125 L32.5360306,36.8125 C32.5924545,37.031176 32.625,37.2359498 32.625,37.40625 L32.625,54.3840876 C33.4429587,54.2744658 34.2491029,54.1282731 35.0416667,53.9472386 L35.0416667,37.40625 C35.0416667,36.1 34.2804167,34.283125 33.3379167,33.356875 L24.0579167,24.236875 C23.1154167,23.310625 21.2666667,22.5625 19.9375,22.5625 L3.10551342,22.5625 C2.92149929,23.3413547 2.77290496,24.1335968 2.6614872,24.9375 L19.9375,24.9375 Z M31.0203333,34.4375 L24.7708333,34.4375 C23.4416667,34.4375 22.9583333,33.9625 22.9583333,32.65625 L22.9583333,26.5145 L31.0203333,34.4375 Z" id="Path" fill="#999999"></path>
            <rect id="Rectangle-61" fill="#999999" x="63" y="27" width="30" height="2"></rect>
            <g id="dotted-line" transform="translate(95.000000, 27.000000)" fill="#999999" >
                <rect id="Rectangle-60" x="0" y="0" width="2" height="1.96551724"></rect>
                <rect id="Rectangle-61" x="4" y="0" width="2" height="1.96551724"></rect>
                <rect id="Rectangle-62" x="8" y="0" width="2" height="1.96551724"></rect>
                <rect id="Rectangle-63" x="12" y="0" width="2" height="1.96551724"></rect>
                <rect id="Rectangle-64" x="16" y="0" width="2" height="1.96551724"></rect>
                <rect id="Rectangle-65" x="20" y="0" width="2" height="1.96551724"></rect>
                <rect id="Rectangle-66" x="24" y="0" width="2" height="1.96551724"></rect>
            </g>
        </g>
    </g>
    <g id="slack-logo" transform="translate(127.000000, -0.000000)">
        <g id="Group" transform="translate(0.000000, 30.000000)" fill="#E01E5A">
            <path d="M12.5288136,6.26440678 C12.5288136,9.63389831 9.77627119,12.3864407 6.40677966,12.3864407 C3.03728814,12.3864407 0.284745763,9.63389831 0.284745763,6.26440678 C0.284745763,2.89491525 3.03728814,0.142372881 6.40677966,0.142372881 L12.5288136,0.142372881 L12.5288136,6.26440678 Z" id="Path"></path>
            <path d="M15.6135593,6.26440678 C15.6135593,2.89491525 18.3661017,0.142372881 21.7355932,0.142372881 C25.1050847,0.142372881 27.8576271,2.89491525 27.8576271,6.26440678 L27.8576271,21.5932203 C27.8576271,24.9627119 25.1050847,27.7152542 21.7355932,27.7152542 C18.3661017,27.7152542 15.6135593,24.9627119 15.6135593,21.5932203 L15.6135593,6.26440678 Z" id="Path"></path>
        </g>
        <g id="Group" fill="#36C5F0">
            <path d="M21.7355932,12.5288136 C18.3661017,12.5288136 15.6135593,9.77627119 15.6135593,6.40677966 C15.6135593,3.03728814 18.3661017,0.284745763 21.7355932,0.284745763 C25.1050847,0.284745763 27.8576271,3.03728814 27.8576271,6.40677966 L27.8576271,12.5288136 L21.7355932,12.5288136 Z" id="Path"></path>
            <path d="M21.7355932,15.6135593 C25.1050847,15.6135593 27.8576271,18.3661017 27.8576271,21.7355932 C27.8576271,25.1050847 25.1050847,27.8576271 21.7355932,27.8576271 L6.40677966,27.8576271 C3.03728814,27.8576271 0.284745763,25.1050847 0.284745763,21.7355932 C0.284745763,18.3661017 3.03728814,15.6135593 6.40677966,15.6135593 L21.7355932,15.6135593 Z" id="Path"></path>
        </g>
        <g id="Group" transform="translate(30.000000, 0.000000)" fill="#2EB67D">
            <path d="M15.4711864,21.7355932 C15.4711864,18.3661017 18.2237288,15.6135593 21.5932203,15.6135593 C24.9627119,15.6135593 27.7152542,18.3661017 27.7152542,21.7355932 C27.7152542,25.1050847 24.9627119,27.8576271 21.5932203,27.8576271 L15.4711864,27.8576271 L15.4711864,21.7355932 Z" id="Path"></path>
            <path d="M12.3864407,21.7355932 C12.3864407,25.1050847 9.63389831,27.8576271 6.26440678,27.8576271 C2.89491525,27.8576271 0.142372881,25.1050847 0.142372881,21.7355932 L0.142372881,6.40677966 C0.142372881,3.03728814 2.89491525,0.284745763 6.26440678,0.284745763 C9.63389831,0.284745763 12.3864407,3.03728814 12.3864407,6.40677966 L12.3864407,21.7355932 Z" id="Path"></path>
        </g>
        <g id="Group" transform="translate(30.000000, 30.000000)" fill="#ECB22E">
            <path d="M6.26440678,15.4711864 C9.63389831,15.4711864 12.3864407,18.2237288 12.3864407,21.5932203 C12.3864407,24.9627119 9.63389831,27.7152542 6.26440678,27.7152542 C2.89491525,27.7152542 0.142372881,24.9627119 0.142372881,21.5932203 L0.142372881,15.4711864 L6.26440678,15.4711864 Z" id="Path"></path>
            <path d="M6.26440678,12.3864407 C2.89491525,12.3864407 0.142372881,9.63389831 0.142372881,6.26440678 C0.142372881,2.89491525 2.89491525,0.142372881 6.26440678,0.142372881 L21.5932203,0.142372881 C24.9627119,0.142372881 27.7152542,2.89491525 27.7152542,6.26440678 C27.7152542,9.63389831 24.9627119,12.3864407 21.5932203,12.3864407 L6.26440678,12.3864407 Z" id="Path"></path>
        </g>
    </g>
</g>
</svg>
