<?xml version="1.0" encoding="UTF-8"?>

<svg viewBox="0 0 125 125" version="1.1" xmlns="http://www.w3.org/2000/svg" xmlns:xlink="http://www.w3.org/1999/xlink">
    <g id="Page-1" stroke="none" stroke-width="1" fill="none" fill-rule="evenodd">
        <g id="slack-logo-check">
            <g id="Group" transform="translate(0.000000, 65.000000)" fill="#E01E5A">
                <path d="M26.4,13.2 C26.4,20.3 20.6,26.1 13.5,26.1 C6.4,26.1 0.6,20.3 0.6,13.2 C0.6,6.1 6.4,0.3 13.5,0.3 L26.4,0.3 L26.4,13.2 Z" id="Path"></path>
                <path d="M32.9,13.2 C32.9,6.1 38.7,0.3 45.8,0.3 C52.9,0.3 58.7,6.1 58.7,13.2 L58.7,45.5 C58.7,52.6 52.9,58.4 45.8,58.4 C38.7,58.4 32.9,52.6 32.9,45.5 L32.9,13.2 Z" id="Path"></path>
            </g>
            <g id="Group" fill="#36C5F0">
                <path d="M45.8,26.4 C38.7,26.4 32.9,20.6 32.9,13.5 C32.9,6.4 38.7,0.6 45.8,0.6 C52.9,0.6 58.7,6.4 58.7,13.5 L58.7,26.4 L45.8,26.4 Z" id="Path"></path>
                <path d="M45.8,32.9 C52.9,32.9 58.7,38.7 58.7,45.8 C58.7,52.9 52.9,58.7 45.8,58.7 L13.5,58.7 C6.4,58.7 0.6,52.9 0.6,45.8 C0.6,38.7 6.4,32.9 13.5,32.9 L45.8,32.9 Z" id="Path"></path>
            </g>
            <g id="Group" transform="translate(65.000000, 0.000000)" fill="#2EB67D">
                <path d="M32.6,45.8 C32.6,38.7 38.4,32.9 45.5,32.9 C52.6,32.9 58.4,38.7 58.4,45.8 C58.4,52.9 52.6,58.7 45.5,58.7 L32.6,58.7 L32.6,45.8 Z" id="Path"></path>
                <path d="M26.1,45.8 C26.1,52.9 20.3,58.7 13.2,58.7 C6.1,58.7 0.3,52.9 0.3,45.8 L0.3,13.5 C0.3,6.4 6.1,0.6 13.2,0.6 C20.3,0.6 26.1,6.4 26.1,13.5 L26.1,45.8 Z" id="Path"></path>
            </g>
            <g id="Group" transform="translate(65.000000, 65.000000)" fill="#ECB22E">
                <path d="M13.2,32.6 C20.3,32.6 26.1,38.4 26.1,45.5 C26.1,52.6 20.3,58.4 13.2,58.4 C6.1,58.4 0.3,52.6 0.3,45.5 L0.3,32.6 L13.2,32.6 Z" id="Path"></path>
                <path d="M13.2,26.1 C6.1,26.1 0.3,20.3 0.3,13.2 C0.3,6.1 6.1,0.3 13.2,0.3 L45.5,0.3 C52.6,0.3 58.4,6.1 58.4,13.2 C58.4,20.3 52.6,26.1 45.5,26.1 L13.2,26.1 Z" id="Path"></path>
            </g>
        </g>
        <g id="check" transform="translate(62.000000, 62.000000)">
            <circle id="Oval" stroke="#979797" fill="#FFFFFF" cx="31" cy="31" r="31"></circle>
            <path d="M9.66769003,31.5071122 C9.26819619,31.0771687 8.71924903,30.8345664 8.14589014,30.8345664 C7.57253124,30.8345664 7.02358409,31.0771687 6.62409024,31.5071122 L3.63598385,34.6353358 C3.23127777,35.0530973 3.00242229,35.6221773 3.00001912,36.216748 C2.99761595,36.8113186 3.22186306,37.3824001 3.62317768,37.8037219 L19.4430666,54.3462677 C20.2729897,55.2126661 21.6155704,55.2186386 22.4525166,54.3596552 L55.3729116,19.944734 C55.7785243,19.5267403 56.0047509,18.9547274 55.9999243,18.3593351 C55.9950977,17.7639428 55.7596302,17.1960202 55.3472992,16.7852729 L52.3591929,13.6615119 C51.9555076,13.2380322 51.4071495,13 50.8352586,13 C50.2633677,13 49.7150096,13.2380322 49.3113243,13.6615119 L22.478129,41.7128857 C21.6358878,42.5870188 20.2767703,42.5870188 19.4345292,41.7128857 L9.66769003,31.5071122 Z" id="Path" fill="#417505"></path>
        </g>
    </g>
</svg>
