<?xml version="1.0" encoding="UTF-8"?>
<svg width="564px" height="342px" viewBox="0 0 564 342" version="1.1" xmlns="http://www.w3.org/2000/svg" xmlns:xlink="http://www.w3.org/1999/xlink">
    <!-- Generator: Sketch 48.2 (47327) - http://www.bohemiancoding.com/sketch -->
    <title>repo-slack-not-connected</title>
    <desc>Created with Sketch.</desc>
    <defs>
        <linearGradient x1="100%" y1="50.0006071%" x2="0%" y2="50.0006071%" id="linearGradient-1">
            <stop stop-color="#C1C7D0" offset="0%"></stop>
            <stop stop-color="#C1C7D0" stop-opacity="0" offset="100%"></stop>
        </linearGradient>
        <linearGradient x1="0%" y1="50.013238%" x2="100.000482%" y2="50.013238%" id="linearGradient-2">
            <stop stop-color="#091E42" offset="0%"></stop>
            <stop stop-color="#091E42" stop-opacity="0" offset="84.3%"></stop>
        </linearGradient>
        <linearGradient x1="35645.7%" y1="26391.9%" x2="56387.8%" y2="26391.9%" id="linearGradient-3">
            <stop stop-color="#091E42" offset="0%"></stop>
            <stop stop-color="#091E42" stop-opacity="0" offset="84.3%"></stop>
        </linearGradient>
        <linearGradient x1="0%" y1="50.0006071%" x2="100.000709%" y2="50.0006071%" id="linearGradient-4">
            <stop stop-color="#0065FF" offset="0%"></stop>
            <stop stop-color="#0266FF" stop-opacity="0.974" offset="7.8%"></stop>
            <stop stop-color="#076AFF" stop-opacity="0.902" offset="18.7%"></stop>
            <stop stop-color="#1070FF" stop-opacity="0.784" offset="31.6%"></stop>
            <stop stop-color="#1D79FF" stop-opacity="0.62" offset="45.8%"></stop>
            <stop stop-color="#2D84FF" stop-opacity="0.409" offset="61.3%"></stop>
            <stop stop-color="#4092FF" stop-opacity="0.156" offset="77.4%"></stop>
            <stop stop-color="#4C9AFF" stop-opacity="0" offset="86.5%"></stop>
        </linearGradient>
        <radialGradient cx="50%" cy="50%" fx="50%" fy="50%" r="50%" id="radialGradient-5">
            <stop stop-color="#FFF0B2" offset="0%"></stop>
            <stop stop-color="#FFE587" stop-opacity="0.761" offset="15.6%"></stop>
            <stop stop-color="#FFDB5F" stop-opacity="0.532" offset="32.4%"></stop>
            <stop stop-color="#FFD33D" stop-opacity="0.342" offset="48.7%"></stop>
            <stop stop-color="#FFCD22" stop-opacity="0.193" offset="64%"></stop>
            <stop stop-color="#FFC810" stop-opacity="0.087" offset="78%"></stop>
            <stop stop-color="#FFC504" stop-opacity="0.023" offset="90.5%"></stop>
            <stop stop-color="#FFC400" stop-opacity="0" offset="100%"></stop>
        </radialGradient>
        <linearGradient x1="100.005158%" y1="50.0005946%" x2="0.0051579626%" y2="50.0005946%" id="linearGradient-6">
            <stop stop-color="#0052CC" offset="0%"></stop>
            <stop stop-color="#2684FF" offset="100%"></stop>
        </linearGradient>
        <linearGradient x1="99.9974571%" y1="49.9922372%" x2="-0.00254291163%" y2="49.9922372%" id="linearGradient-7">
            <stop stop-color="#7A869A" offset="0%"></stop>
            <stop stop-color="#DFE1E5" offset="100%"></stop>
        </linearGradient>
        <linearGradient x1="23621.7%" y1="7450.2%" x2="27554.2%" y2="7450.2%" id="linearGradient-8">
            <stop stop-color="#7A869A" offset="0%"></stop>
            <stop stop-color="#DFE1E5" offset="100%"></stop>
        </linearGradient>
        <linearGradient x1="50.0098971%" y1="3.73415634e-14%" x2="50.0098971%" y2="100.001051%" id="linearGradient-9">
            <stop stop-color="#2684FF" offset="0%"></stop>
            <stop stop-color="#B2D4FF" offset="100%"></stop>
        </linearGradient>
        <linearGradient x1="100.006448%" y1="49.9994054%" x2="-1.09955675e-13%" y2="49.9994054%" id="linearGradient-10">
            <stop stop-color="#7A869A" offset="0%"></stop>
            <stop stop-color="#EBECF0" offset="100%"></stop>
        </linearGradient>
        <linearGradient x1="50%" y1="100.001051%" x2="50%" y2="0%" id="linearGradient-11">
            <stop stop-color="#C1C7D0" offset="0%"></stop>
            <stop stop-color="#F4F5F7" offset="100%"></stop>
        </linearGradient>
        <linearGradient x1="20.5984829%" y1="44.2850909%" x2="72.3862821%" y2="54.2516364%" id="linearGradient-12">
            <stop stop-color="#4C9AFF" offset="0%"></stop>
            <stop stop-color="#0065FF" offset="81.3%"></stop>
            <stop stop-color="#0065FF" offset="87.1%"></stop>
        </linearGradient>
        <linearGradient x1="0.00718473757%" y1="49.9992899%" x2="100.001181%" y2="49.9992899%" id="linearGradient-13">
            <stop stop-color="#B2D4FF" offset="0%"></stop>
            <stop stop-color="#2684FF" offset="100%"></stop>
        </linearGradient>
        <linearGradient x1="0.00371944551%" y1="49.9984998%" x2="100.001827%" y2="49.9984998%" id="linearGradient-14">
            <stop stop-color="#6554C0" offset="34.3%"></stop>
            <stop stop-color="#998DD9" offset="100%"></stop>
        </linearGradient>
        <linearGradient x1="0.00109579302%" y1="49.9965515%" x2="100%" y2="49.9965515%" id="linearGradient-15">
            <stop stop-color="#5243AA" offset="0%"></stop>
            <stop stop-color="#8777D9" offset="100%"></stop>
        </linearGradient>
        <linearGradient x1="-134159.661%" y1="214169%" x2="-134721.788%" y2="215457.8%" id="linearGradient-16">
            <stop stop-color="#FFFFFF" stop-opacity="0.4" offset="0%"></stop>
            <stop stop-color="#FFFFFF" offset="100%"></stop>
        </linearGradient>
        <linearGradient x1="81.9929115%" y1="43.9048242%" x2="-1.74074845%" y2="87.728554%" id="linearGradient-17">
            <stop stop-color="#FFD740" offset="0%"></stop>
            <stop stop-color="#FFAB00" offset="100%"></stop>
        </linearGradient>
    </defs>
    <g id="Illustrations" stroke="none" stroke-width="1" fill="none" fill-rule="evenodd">
        <g id="repo-slack-not-connected">
            <g id="Slack-integration-–-alert">
                <polygon id="Shape" fill="#DFE1E5" fill-rule="nonzero" points="149.183 333.024 143.001 333.024 143.647 329.873 149.829 329.873"></polygon>
                <path d="M180.192,333.024 L186.1,333.024 C186.054667,331.973333 186.009333,330.923 185.964,329.873 C184.156,329.183 181.987,328.789 180.209,329.759 C180.147667,329.792333 180.086667,329.827333 180.026,329.864 L180.192,333.024 Z" id="Shape" fill="#DFE1E5" fill-rule="nonzero"></path>
                <path d="M141.124,174.329 C109.749256,174.329 84.315,199.763256 84.315,231.138 L84.315,282.224 C84.315,313.598744 58.8807444,339.033 27.506,339.033 L0,339.033" id="Shape" stroke="url(#linearGradient-1)" stroke-width="4.468"></path>
                <path d="M419.286,199.893 L417.398,197.423 L416.656,191.599 L416.521,188.283 L418.544,188.283 L420.787,190.934 C421.311582,191.553834 421.742494,192.247202 422.066,192.992 C422.519822,194.036853 422.754003,195.163846 422.754,196.303 L422.754,198.679 L419.286,199.893 Z" id="Shape" fill="#D4B696" fill-rule="nonzero"></path>
                <path d="M159.759,187.357 L158.186,181.091 C158.186928,180.698033 158.49369,180.373741 158.886,180.351 C159.186,180.619 159.526,180.857 159.754,180.751 C159.949,180.66 159.887,180.399 160.098,180.267 C160.468,180.036 161.157,180.518 161.366,180.667 C161.600262,180.831197 161.810022,181.027827 161.989,181.251 L162.938,181.593 C163.27134,181.71297 163.521504,181.993229 163.603,182.338 L164.789,183.233 C165.329,183.317 165.548,185.491 165.568,185.568 L165.161,188.359 C165.231849,188.625891 165.148843,188.910057 164.945472,189.096847 C164.742102,189.283638 164.451918,189.342236 164.192,189.249 L160.208,187.821 C159.995439,187.742846 159.830129,187.572013 159.759,187.357 Z" id="Shape" fill="#A27F68" fill-rule="nonzero"></path>
                <path d="M164.863,192.409 C166.049,191.992 168.917,195.819 165.908,188.454 C165.585434,187.006288 164.736967,185.729846 163.527,184.872 C161.61,183.69 160.054,185.135 158.412,183.801 C157.524,183.079 157.5,182.274 156.365,181.801 C155.573,181.474 154.515,181.423 154.321,181.801 C154.1,182.235 155.165,182.877 156.638,184.747 C158.098,186.6 157.778,186.891 159.086,188.273 C159.63,188.848 160.014,189.145 161.186,190.379 C161.465016,190.706241 161.767841,191.012409 162.092,191.295 C162.653,191.755 163.9,192.748 164.863,192.409 Z" id="Shape" fill="#A27F68" fill-rule="nonzero"></path>
                <path d="M163.967,250.549 C161.227,248.942 161.445,244.859 161.867,239.123 C162.937,224.404 165.458,219.004 165.784,211.439 C166.002,206.389 165.297,199.075 160.767,189.987 L167.024,189.321 C170.158278,196.892847 172.360432,204.817646 173.582,212.921 C174.390221,218.545581 174.805228,224.219678 174.824,229.902 C174.857,240.565 173.402,245.066 174.498,248.902 C174.673662,249.347298 174.663214,249.844474 174.469,250.282 C173.43,252.195 167.04,252.351 163.967,250.549 Z" id="Shape" fill="#403294" fill-rule="nonzero"></path>
                <rect id="Rectangle-path" fill="url(#linearGradient-2)" fill-rule="nonzero" opacity="0.25" transform="translate(103.710500, 339.919500) rotate(180.000000) translate(-103.710500, -339.919500) " x="-2.84217094e-14" y="338.031" width="207.421" height="3.777" rx="1.8885"></rect>
                <rect id="Rectangle-path" fill="url(#linearGradient-3)" fill-rule="nonzero" opacity="0.25" x="356.457" y="338.03" width="207.421" height="3.777" rx="1.8885"></rect>
                <path d="M422.754,174.329 C454.128744,174.329 479.563,199.763256 479.563,231.138 L479.563,282.224 C479.563,313.598744 504.997256,339.033 536.372,339.033 L563.877,339.033" id="Shape" stroke="url(#linearGradient-4)" stroke-width="4.468"></path>
                <rect id="Rectangle-path" fill="#B3BAC5" fill-rule="nonzero" x="129.583" y="165.401" width="6.471" height="17.89" rx="3.2355"></rect>
                <rect id="Rectangle-path" fill="#B3BAC5" fill-rule="nonzero" x="136.055" y="165.401" width="6.471" height="17.89" rx="3.2355"></rect>
                <rect id="Rectangle-path" fill="#0052CC" fill-rule="nonzero" x="420.907" y="165.401" width="6.471" height="17.89" rx="3.2355"></rect>
                <rect id="Rectangle-path" fill="#0052CC" fill-rule="nonzero" x="427.379" y="165.401" width="6.471" height="17.89" rx="3.2355"></rect>
                <circle id="Oval" fill="url(#radialGradient-5)" fill-rule="nonzero" opacity="0.38" cx="284.129" cy="174.513" r="96.518"></circle>
                <path d="M387.258,132.284 L422.758,132.284 L422.758,216.375 L387.258,216.375 C376.105933,216.376326 365.410187,211.947046 357.52411,204.061719 C349.638032,196.176392 345.207735,185.481067 345.208,174.329 C345.208,163.177106 349.638415,152.482038 357.524463,144.596927 C365.410512,136.711817 376.106106,132.282674 387.258,132.284 Z" id="Shape" fill="url(#linearGradient-6)" fill-rule="nonzero" transform="translate(383.983000, 174.329500) rotate(-180.000000) translate(-383.983000, -174.329500) "></path>
                <rect id="Rectangle-path" fill="url(#linearGradient-7)" fill-rule="nonzero" transform="translate(255.878500, 195.533500) rotate(-180.000000) translate(-255.878500, -195.533500) " x="236.216" y="192.313" width="39.325" height="6.441"></rect>
                <rect id="Rectangle-path" fill="url(#linearGradient-8)" fill-rule="nonzero" transform="translate(255.878500, 150.501500) rotate(-180.000000) translate(-255.878500, -150.501500) " x="236.216" y="147.281" width="39.325" height="6.441"></rect>
                <path d="M330.955,126.943 L345.205,126.943 L345.205,222.084 L330.955,222.084 C327.664487,222.084 324.997,219.416513 324.997,216.126 L324.997,132.901 C324.997,129.610487 327.664487,126.943 330.955,126.943 Z" id="Shape" fill="url(#linearGradient-9)" fill-rule="nonzero" transform="translate(335.101000, 174.513500) rotate(-180.000000) translate(-335.101000, -174.513500) "></path>
                <path d="M183.169,132.284 L218.669,132.284 L218.669,216.375 L183.169,216.375 C159.948188,216.375 141.124,197.550812 141.124,174.33 C141.123735,163.178799 145.553346,152.484232 153.438342,144.599049 C161.323338,136.713866 172.017799,132.284 183.169,132.284 Z" id="Shape" fill="url(#linearGradient-10)" fill-rule="nonzero"></path>
                <path d="M224.631,126.942 L238.885,126.942 L238.885,222.083 L224.631,222.083 C221.340487,222.083 218.673,219.415513 218.673,216.125 L218.673,132.9 C218.673,129.609487 221.340487,126.942 224.631,126.942 Z" id="Shape" fill="url(#linearGradient-11)" fill-rule="nonzero"></path>
                <path d="M378.341,222.067 C377.922238,221.249257 377.3623,220.511925 376.687,219.889 C375.728205,219.011812 374.567445,218.385228 373.308,218.065 C372.870589,217.717324 372.36807,217.460625 371.83,217.31 L369.758,216.732 C369.400397,216.628716 369.180742,216.269582 369.251691,215.904187 C369.322639,215.538792 369.66073,215.287954 370.031,215.326 L378.549,216.278 C379.597059,216.394955 380.585247,215.766676 380.924,214.768 L381.141,214.127 C381.269938,213.747952 381.64926,213.513299 382.045999,213.567156 C382.442738,213.621013 382.745777,213.948296 382.769,214.348 L382.848,215.728 C382.985998,218.149396 382.481637,220.564257 381.386,222.728 L378.341,222.067 Z" id="Shape" fill="#D4B696" fill-rule="nonzero"></path>
                <path d="M427.422,261.477 C428.522,263.559 429.589,265.767 430.606,268.102 C434.362143,276.760218 436.881499,285.903826 438.09,295.264 C439.17,298.079 440.212,301.035 441.19,304.131 C443.74969,312.217776 445.655817,320.497055 446.89,328.889 L442.025,330.302 C440.347,325.742 437.675,318.568 434.238,309.722 C429.904,298.568 427.738,292.99 427.649,292.788 C421.576,278.707 418.276,274.811 419.868,269.464 C420.417,267.631 421.966,264.419 427.422,261.477 Z" id="Shape" fill="#0065FF" fill-rule="nonzero"></path>
                <path d="M411.852,265.028 L402.7,293.9 L394.5,329.154 L399.284,330.435 C402.216,323.325 405.076,315.796 407.791,307.855 C409.173,303.813 410.460667,299.84 411.654,295.936 C413.354144,292.511837 415.556093,289.360754 418.187,286.587 C422.822,281.735 426.723,280.323 429.421,274.974 C431.453,270.945 430.782,268.651 430.599,268.106 C430.458,267.685 430.086,266.913 429.352,265.385 C428.597,263.813 427.952,262.537 427.525,261.685 C422.501219,263.597439 417.212934,264.724982 411.846,265.028 L411.852,265.028 Z" id="Shape" fill="url(#linearGradient-12)" fill-rule="nonzero"></path>
                <path d="M395.41,322.345 C395.321974,324.3366 394.893093,326.29836 394.142,328.145 C393.092062,331.039763 391.160341,333.532148 388.619,335.271 C387.010407,336.309661 385.199373,336.994466 383.306,337.28 L383.442,338.056 C385.852,338.102 390.942,338.148 393.357,338.194 C393.57898,337.488214 394.322201,337.087132 395.034,337.289 C395.365472,337.498577 395.581423,337.849636 395.619,338.24 L398.075,338.028 C398.341667,337.004 398.621,335.973333 398.913,334.936 C400.113,330.636 401.423,326.509 402.804,322.57 L395.41,322.345 Z" id="Shape" fill="#344563" fill-rule="nonzero"></path>
                <path d="M439.157,322.708 C440.03894,324.811399 440.673527,327.010139 441.048,329.26 C441.191,331.183 441.309,332.76 440.339,334.173 C439.516925,335.171029 438.466671,335.95649 437.277,336.463 C436.340087,336.982375 435.357255,337.414205 434.341,337.753 L434.499,338.453 L441.091,338.264 L442.781,338.207 C442.850976,337.89523 443.058855,337.632161 443.346,337.492 C443.659898,337.371071 444.012477,337.40555 444.297,337.585 C444.520455,337.716949 444.695703,337.917083 444.797,338.156 C445.987487,338.256925 447.185801,338.213948 448.366,338.028 C448.216,336.972667 448.062,335.912333 447.904,334.847 C447.815,334.247 447.657,333.187 447.418,331.636 C446.856,327.986 446.129,323.46 445.956,322.381 L439.157,322.708 Z" id="Shape" fill="#344563" fill-rule="nonzero"></path>
                <path d="M403.174,242.374 C408.002135,240.718074 412.737066,238.801936 417.358,236.634 C417.688,236.367 418.014,236.087 418.014,236.087 C418.114,236.002 418.214,235.914 418.325,235.816 C420.96,233.486 426.919,227.316 426.893,217.849 C426.864,207.149 419.327,200.691 418.241,199.793 L423.361,197.424 C428.682387,202.471916 432.0659,209.225496 432.923,216.51 C433.849,225.774 429.987,232.933 428.246,236.16 C426.829988,238.781583 425.121418,241.234235 423.153,243.471 C422.839663,250.141486 424.523467,256.753792 427.989,262.462 L410.7,267.835 C412.17,264.635 411.909,262.618 411.384,261.362 C410.208,258.548 407.074,258.032 405.909,254.628 C405.542689,253.519435 405.433263,252.342085 405.589,251.185 C398.596903,251.818666 391.623665,249.786204 386.067,245.495 C374.454,236.195 376.124,220.995 376.242,220.069 L382.463,221.542 C382.190247,224.781689 382.534671,228.043712 383.478,231.155 C386.4,239.477 395.719,244.6 403.174,242.374 Z" id="Shape" fill="url(#linearGradient-13)" fill-rule="nonzero"></path>
                <path d="M405.654,227.5 C405.892268,227.573675 406.136044,227.628182 406.383,227.663 C407.089168,227.746682 407.769148,227.980958 408.377,228.35 C409.427,229.083 408.741,230.503 409.645,232.558 C409.886655,233.084707 410.059734,233.640242 410.16,234.211 C410.207836,234.483451 410.238231,234.758677 410.251,235.035 C410.286,235.704 410.706,237.072 412.242,240.041 L411.265,239.773 L408.373,238.665 C406.296,237.279 405.835,237.065 405.828,236.077 C405.82,234.895 405.812,232.831 405.744,232.752 C405.069,232.103 404.203,231.977 404.869,231.181 C405.248,230.727 405.539,230.401 405.64,230.307 C405.954,230.017 406.172,229.321 405.654,227.5 Z" id="Shape" fill="#D4B696" fill-rule="nonzero"></path>
                <path d="M408.3,228.3 C407.988131,232.332343 408.531315,236.385094 409.894,240.193 C409.938667,240.317 409.984,240.44 410.03,240.562 C410.890089,242.897392 412.738493,244.73317 415.079724,245.577232 C417.420956,246.421295 420.015552,246.18731 422.168,244.938 C422.321333,244.846 422.474333,244.748667 422.627,244.646 L422.705,244.593 C423.999527,243.686587 424.839543,242.265279 425.009305,240.694112 C425.179068,239.122945 424.662036,237.55501 423.591,236.393 C422.345124,235.024157 421.287765,233.494955 420.447,231.846 C418.379,227.77 418.67,224.897 415.919,223.293 C414.160195,222.435828 412.191868,222.102913 410.249,222.334 C409.220288,222.332629 408.213141,222.628869 407.349,223.187 C406.689471,223.682978 406.146724,224.317548 405.759,225.046 C405.353565,225.798361 405.114825,226.629177 405.059,227.482 C406.180074,227.551794 407.278718,227.827388 408.3,228.295 L408.3,228.3 Z" id="Shape" fill="#172B4D" fill-rule="nonzero"></path>
                <path d="M251.325,232.229 L247.768,255.746 C247.732309,255.98635 247.866855,256.219624 248.092773,256.309085 C248.318691,256.398546 248.576466,256.320626 248.715,256.121 L261.156,238.1 L265.32,240.976 C265.468401,241.078349 265.659051,241.097055 265.824515,241.025503 C265.989979,240.953951 266.106929,240.802228 266.134,240.624 L269.691,217.107 C269.726691,216.86665 269.592145,216.633376 269.366227,216.543915 C269.140309,216.454454 268.882534,216.532374 268.744,216.732 L256.3,234.753 L252.136,231.877 C251.987718,231.776104 251.798077,231.758227 251.633553,231.829636 C251.469029,231.901045 251.35257,232.051779 251.325,232.229 Z" id="Shape" fill="#FFC400" fill-rule="nonzero"></path>
                <path d="M279.922,236.477 L285.441,246.977 C285.4911,247.071227 285.599436,247.118615 285.702638,247.091444 C285.805839,247.064273 285.876795,246.969682 285.874,246.863 L285.552,235.976 L288.085,235.901 C288.1649,235.899756 288.238428,235.85713 288.27921,235.788411 C288.319993,235.719692 288.322185,235.63473 288.285,235.564 L282.766,225.064 C282.7159,224.969773 282.607564,224.922385 282.504362,224.949556 C282.401161,224.976727 282.330205,225.071318 282.333,225.178 L282.655,236.065 L280.122,236.14 C280.0421,236.141244 279.968572,236.18387 279.92779,236.252589 C279.887007,236.321308 279.884815,236.40627 279.922,236.477 Z" id="Shape" fill="#FFC400" fill-rule="nonzero"></path>
                <path d="M209.348,217.642 L209.386,217.542 C210.002984,215.878003 210.96622,214.363957 212.212,213.1 L212.692,212.613 C212.926821,212.37495 213.291358,212.322231 213.584,212.484 C213.763153,212.583364 213.89356,212.75203 213.944625,212.950427 C213.99569,213.148824 213.962919,213.35949 213.854,213.533 L213.474,214.133 C213.296859,214.415781 213.294255,214.774265 213.467269,215.059589 C213.640283,215.344913 213.959359,215.508338 214.292,215.482 L215.338,215.397 C215.526,215.381667 215.714667,215.374 215.904,215.374 L219.204,215.374 L219.204,215.492 C219.203957,216.068144 219.052203,216.63412 218.764,217.133 L218.964,217.96 L211.636,220.04 L209.348,217.642 Z" id="Shape" fill="#A27F68" fill-rule="nonzero"></path>
                <path d="M167.017,287.712 C169.558,276.796 169.159,273.746 168.075,271.302 C166.471867,268.048248 163.79077,265.450549 160.488,263.951 C159.371364,265.939789 158.411779,268.01276 157.618,270.151 C155.788,275.079 155.45,278.733 154.754,283.351 C154.232,286.816 153.362,291.789 151.871,297.871 C147.34222,308.041741 144.499049,318.881795 143.453,329.966 L149.828,329.96 C155.970068,321.327178 160.51089,311.66091 163.234,301.422 C163.976,299.083 164.992,295.653 166.099,291.437 C166.392,290.318 166.69,289.118 167.017,287.712 Z" id="Shape" fill="#6554C0" fill-rule="nonzero"></path>
                <path d="M175.715,267.059 C178.652,273.643 180.886,279.252 182.475,283.438 C186.083,292.943 186.702,295.997 186.945,297.306 C187.918,302.541 187.823,306.488 187.635,312.817 C187.456627,318.736517 186.899824,324.638564 185.968,330.487 L180.044,330.815 C176.252735,320.996625 174.735084,310.446919 175.605,299.958 C172.443634,296.903544 169.444203,293.685814 166.619,290.318 C164.189,287.418 162.04,284.594 160.142,281.9 C160.142,281.9 155.784,274.632 157.519,270.511 L157.537,270.468 C158.027,269.28 158.468,268.282 158.689,267.793 C159.389,266.247 159.984,264.993 160.389,264.157 C165.319502,265.904833 170.489761,266.882963 175.718,267.057 L175.715,267.059 Z" id="Shape" fill="url(#linearGradient-14)" fill-rule="nonzero"></path>
                <path d="M171.164,223.906 C170.695,223.669 170.186,223.432 169.639,223.206 C169.048,222.958 168.482,222.749 167.948,222.572 C166.922562,220.733397 165.149806,219.43019 163.089,219 C161.765377,218.746907 160.395269,218.935209 159.189,219.536 C156.349,221.022 155.511,224.636 155.775,227.148 C155.823252,228.587025 156.36004,229.966735 157.297,231.06 C159.067,232.904 161.423,232.331 162.115,233.926 C162.682,235.233 161.315,236.199 161.866,237.126 C162.866,238.82 169.121,238.51 170.215,235.56 C170.515477,234.596128 170.400599,233.550631 169.898,232.675 L172.666,228.902 C172.101411,227.611966 171.261442,226.461062 170.205,225.53 C170.618612,225.050153 170.944275,224.501062 171.167,223.908 L171.164,223.906 Z" id="Shape" fill="#A27F68" fill-rule="nonzero"></path>
                <path d="M163.072,227.443 C162.924,226.385 163.384,226.058 163.012,225.402 C162.588,224.653 161.812,224.77 161.285,223.872 C161.011314,223.502808 160.898763,223.038537 160.973,222.585 C161.382,221.311 164.573,221.724 164.946,220.492 C165.014345,220.15875 164.941969,219.81207 164.746,219.534 C163.981453,218.963004 163.092515,218.581247 162.152,218.42 C159.354906,218.09373 156.633875,219.471966 155.242,221.92 C153.761346,224.493689 154.010652,227.71204 155.87,230.027 C156.784001,231.211441 158.072988,232.050552 159.526,232.407 C160.246759,232.393661 160.944133,232.662848 161.469,233.157 C161.855,233.657 161.785,234.236 162.114,234.329 C162.197,234.352 162.49,234.397 163.147,233.564 C163.847,232.672 164.696,231.6 164.525,230.316 C164.346,228.993 163.287,228.971 163.072,227.443 Z" id="Shape" fill="#42526E" fill-rule="nonzero"></path>
                <path d="M170.909,236.021 C177.623,238.757 180.698,246.541 180.7,252.329 C180.583753,255.330438 179.929717,258.286643 178.769,261.057 C177.983694,263.627717 176.75152,266.039936 175.129,268.183 C170.873,273.552 158.722,273.234 156.878,269.425 C156.622764,268.852024 156.552842,268.213641 156.678,267.599 C158.954,253.847 155.933,238.547 163.017,235.338 C165.987,233.992 169.2,235.324 170.909,236.021 Z" id="Shape" fill="#5243AA" fill-rule="nonzero"></path>
                <path d="M212.458,219.923 L212.888,220.395 C200.903596,234.466511 184.010028,243.445711 165.642,245.507 C163.919,243.8 161.817,241.176 162.42,238.751 C162.92,236.736 165.185,235.275 175.42,232.582 C179.497,231.509 184.978,230.204 191.579,229.03 L209.347,216.509 L209.363,216.526 L212.458,219.923 Z" id="Shape" fill="url(#linearGradient-15)" fill-rule="nonzero"></path>
                <path d="M415.645,192.76 L419.545,196.668 L420.904,194.315 L416.546,191.615 C416.240508,191.42576 415.842875,191.485892 415.607,191.757 C415.352873,192.048931 415.369513,192.488134 415.645,192.76 Z" id="Shape" fill="#D4B696" fill-rule="nonzero"></path>
                <path d="M179.215,335.313 C180.854032,335.31435 182.190497,336.627252 182.221,338.266 L179.136,338.266 L179.136,335.321 C179.163,335.32 179.188,335.313 179.215,335.313 Z" id="Shape" fill="#B3BAC5" fill-rule="nonzero"></path>
                <path d="M184.884,332.6 C184.885647,332.611505 184.892217,332.621725 184.902,332.628 C185.012,332.68 185.324,331.705 185.76,331.511 C186.604,331.136 187.989,333.646 190.453,335.267 C191.398562,335.884218 192.43957,336.341031 193.534,336.619 C193.861903,336.702322 194.091349,336.997676 194.091,337.336 L194.091,338.036 L179.142,338.036 C179.080956,336.172655 179.42522,334.318273 180.151,332.601 L184.884,332.6 Z" id="_Path_" fill="#42526E" fill-rule="nonzero"></path>
                <path d="M142.236,335.313 C143.875032,335.31435 145.211497,336.627252 145.242,338.266 L142.157,338.266 L142.157,335.321 C142.183,335.32 142.209,335.313 142.236,335.313 Z" id="Shape" fill="#B3BAC5" fill-rule="nonzero"></path>
                <path d="M147.9,332.6 C147.901647,332.611505 147.908217,332.621725 147.918,332.628 C148.028,332.68 148.34,331.705 148.776,331.511 C149.62,331.136 151.005,333.646 153.469,335.267 C154.414562,335.884218 155.45557,336.341031 156.55,336.619 C156.877903,336.702322 157.107349,336.997676 157.107,337.336 L157.107,338.036 L142.163,338.036 C142.101956,336.172655 142.44622,334.318273 143.172,332.601 L147.9,332.6 Z" id="_Path_2" fill="#42526E" fill-rule="nonzero"></path>
                <g id="Slack-logo" transform="translate(358.000000, 153.000000)" fill="url(#linearGradient-16)" fill-rule="nonzero">
                    <path d="M36.0663333,34.1761667 C36.0663333,34.1761667 36.253,34.0495 36.5596667,33.8095 C41.0263333,30.3561667 43.833,25.3428333 43.833,19.7628333 C43.833,9.35616667 34.0463333,0.916166667 21.9796667,0.916166667 C9.913,0.916166667 0.133,9.35616667 0.133,19.7628333 C0.133,30.1695 9.913,38.6228333 21.9796667,38.6228333 C23.5203757,38.6230609 25.0578815,38.4824762 26.573,38.2028333 L27.0463333,38.1161667 C30.1196667,40.1161667 34.5863333,41.7428333 38.493,41.7428333 C39.713,41.7428333 40.2796667,40.7495 39.5063333,39.7428333 C38.3263333,38.2495 36.6996667,35.9628333 36.0663333,34.1761667 Z M33.3996667,25.9361667 C32.0996667,27.8828333 28.0663333,31.1961667 22.013,31.1961667 L21.933,31.1961667 C15.873,31.1961667 11.8396667,27.8628333 10.5463333,25.9361667 C10.286149,25.6505722 10.1127133,25.2967633 10.0463333,24.9161667 C10.0261161,24.6742746 10.1059516,24.4346706 10.2672163,24.2532478 C10.428481,24.071825 10.6570725,23.9644487 10.8996667,23.9561667 C11.1127834,23.9631758 11.3191284,24.0327303 11.493,24.1561667 C14.4547283,26.5666024 18.1543682,27.8868937 21.973,27.8961667 C25.8100915,27.9374028 29.5342082,26.598235 32.4663333,24.1228333 C32.6235214,23.9808926 32.8278763,23.9024773 33.0396667,23.9028333 C33.5194038,23.9028194 33.9093379,24.2897768 33.913,24.7695 C33.856962,25.1958128 33.6864792,25.5989814 33.4196667,25.9361667 L33.3996667,25.9361667 Z" id="Shape"></path>
                </g>
                <g id="Error" transform="translate(235.000000, 0.000000)">
                    <path d="M50.8062592,69.6308398 L73.8062592,109.48084 C74.7469464,111.106023 74.7480037,113.109876 73.8090319,114.736051 C72.8700601,116.362227 71.1340529,117.363079 69.2562592,117.36084 L23.2562592,117.36084 C21.3784655,117.363079 19.6424583,116.362227 18.7034865,114.736051 C17.7645147,113.109876 17.765572,111.106023 18.7062592,109.48084 L41.7062592,69.6308398 C42.6431966,68.0031941 44.3782064,67 46.2562592,67 C48.134312,67 49.8693219,68.0031941 50.8062592,69.6308398 Z" id="_Polygon_2" fill="url(#linearGradient-17)" fill-rule="nonzero"></path>
                    <path d="M48.4262592,98.75 L49.4262592,83.39 C49.4843285,82.5125904 49.1764945,81.6503012 48.575905,81.0080304 C47.9753154,80.3657595 47.1355879,80.0008457 46.2562592,80 C45.3769305,80.0008457 44.537203,80.3657595 43.9366135,81.0080304 C43.3360239,81.6503012 43.0281899,82.5125904 43.0862592,83.39 L44.0862592,98.75 C44.1801381,99.8831762 45.1292076,100.753882 46.2662592,100.75 C47.395627,100.743494 48.3330259,99.8755316 48.4262592,98.75 Z" id="Shape" fill="#253858" fill-rule="nonzero"></path>
                    <path d="M42.9073679,107.37051 C42.8978427,108.303741 43.2839223,109.197367 43.9699915,109.830075 C44.6560606,110.462783 45.5779575,110.775402 46.5073679,110.69051 C48.3145271,110.554124 49.6855582,109.0053 49.6016703,107.194944 C49.5177823,105.384588 48.0093957,103.969191 46.1973679,104.00051 C44.3605488,104.027934 42.890663,105.533562 42.9073679,107.37051 Z" id="Shape" fill="#253858" fill-rule="nonzero"></path>
                    <path d="M56.481882,26.764167 L49.181882,0.444166964 C49.1089203,0.172895237 48.8575119,-0.0114411661 48.5768557,0.000552688302 C48.2961995,0.0125465427 48.0614343,0.2176596 48.011882,0.494166964 L43.421882,25.214167 L37.711882,24.154167 C37.5081339,24.1154996 37.2988633,24.1847906 37.1584521,24.3374115 C37.0180409,24.4900324 36.9663991,24.7043418 37.021882,24.904167 L44.321882,51.224167 C44.3948436,51.4954387 44.646252,51.6797751 44.9269082,51.6677812 C45.2075644,51.6557874 45.4423297,51.4506743 45.491882,51.174167 L50.081882,26.454167 L55.791882,27.514167 C55.9956301,27.5528343 56.2049006,27.4835434 56.3453119,27.3309225 C56.4857231,27.1783016 56.5373649,26.9639921 56.481882,26.764167 Z" id="Shape" fill="#FFC400" fill-rule="nonzero"></path>
                    <path d="M30.1420793,40.4950788 L19.4320793,32.0650788 C19.3373623,31.9814694 19.1962508,31.9780504 19.0975958,32.0569744 C18.9989407,32.1358984 18.9713007,32.2743188 19.0320793,32.3850788 L24.4720793,43.6450788 L21.8520793,44.9150788 C21.7717974,44.9615667 21.7223674,45.0473086 21.7223674,45.1400788 C21.7223674,45.2328489 21.7717974,45.3185909 21.8520793,45.3650788 L32.5620793,53.7850788 C32.6567962,53.8686881 32.7979077,53.8721072 32.8965628,53.7931832 C32.9952178,53.7142591 33.0228578,53.5758388 32.9620793,53.4650788 L27.4720793,42.2050788 L30.0920793,40.9350788 C30.1738111,40.8967391 30.2298049,40.8187469 30.239998,40.7290468 C30.2501912,40.6393467 30.2131247,40.5507795 30.1420793,40.4950788 Z" id="Shape" fill="#FFAB00" fill-rule="nonzero"></path>
                    <path d="M77.615477,31.4155261 C76.875477,33.2155261 65.775477,28.6455261 65.035477,30.4155261 C64.295477,32.1855261 75.395477,36.7855261 74.645477,38.5855261 C73.895477,40.3855261 62.805477,35.8155261 62.065477,37.5855261 C61.325477,39.3555261 72.405477,44.0055261 71.615477,45.8255261 C70.825477,47.6455261 59.775477,43.0655261 59.035477,44.8255261 C58.295477,46.5855261 69.385477,51.1955261 68.645477,53.0055261" id="Shape" stroke="#344563" stroke-width="2" stroke-linecap="round"></path>
                    <path d="M95.5340441,45.6713779 C94.6640441,47.4113779 87.3640441,43.7413779 86.5340441,45.4813779 C85.7040441,47.2213779 92.9540441,50.8913779 92.0740441,52.6313779 C91.1940441,54.3713779 83.9040441,50.7013779 83.0740441,52.4413779 C82.6640441,53.2513779 84.0240441,54.4413779 85.4940441,55.7213779" id="Shape" stroke="#5E6C84" stroke-width="2" stroke-linecap="round"></path>
                    <path d="M0,47.2072526 C1.37,48.5972526 7.17,42.8572526 8.54,44.2072526 C9.91,45.5572526 4.1,51.3272526 5.47,52.7172526 C6.84,54.1072526 12.64,48.3672526 14.01,49.7172526 C14.65,50.3572526 13.74,51.9372526 12.72,53.5872526" id="Shape" stroke="#5E6C84" stroke-width="2" stroke-linecap="round"></path>
                </g>
            </g>
        </g>
    </g>
</svg>
